<svg width="14" height="16" viewBox="0 0 14 16" fill="none" xmlns="http://www.w3.org/2000/svg">
<path d="M6.66667 12.6665C6.79852 12.6665 6.92741 12.6274 7.03705 12.5542C7.14668 12.4809 7.23213 12.3768 7.28259 12.255C7.33305 12.1331 7.34625 11.9991 7.32052 11.8698C7.2948 11.7405 7.23131 11.6217 7.13807 11.5284C7.04484 11.4352 6.92605 11.3717 6.79673 11.346C6.66741 11.3203 6.53336 11.3335 6.41154 11.3839C6.28973 11.4344 6.18561 11.5198 6.11235 11.6295C6.0391 11.7391 6 11.868 6 11.9998C6 12.1766 6.07024 12.3462 6.19526 12.4712C6.32029 12.5963 6.48986 12.6665 6.66667 12.6665ZM10 12.6665C10.1319 12.6665 10.2607 12.6274 10.3704 12.5542C10.48 12.4809 10.5655 12.3768 10.6159 12.255C10.6664 12.1331 10.6796 11.9991 10.6539 11.8698C10.6281 11.7405 10.5646 11.6217 10.4714 11.5284C10.3782 11.4352 10.2594 11.3717 10.1301 11.346C10.0007 11.3203 9.8667 11.3335 9.74488 11.3839C9.62306 11.4344 9.51894 11.5198 9.44569 11.6295C9.37243 11.7391 9.33333 11.868 9.33333 11.9998C9.33333 12.1766 9.40357 12.3462 9.52859 12.4712C9.65362 12.5963 9.82319 12.6665 10 12.6665ZM10 9.99984C10.1319 9.99984 10.2607 9.96074 10.3704 9.88748C10.48 9.81423 10.5655 9.71011 10.6159 9.58829C10.6664 9.46648 10.6796 9.33243 10.6539 9.20311C10.6281 9.07379 10.5646 8.955 10.4714 8.86177C10.3782 8.76853 10.2594 8.70504 10.1301 8.67931C10.0007 8.65359 9.8667 8.66679 9.74488 8.71725C9.62306 8.76771 9.51894 8.85316 9.44569 8.96279C9.37243 9.07242 9.33333 9.20132 9.33333 9.33317C9.33333 9.50998 9.40357 9.67955 9.52859 9.80457C9.65362 9.9296 9.82319 9.99984 10 9.99984ZM6.66667 9.99984C6.79852 9.99984 6.92741 9.96074 7.03705 9.88748C7.14668 9.81423 7.23213 9.71011 7.28259 9.58829C7.33305 9.46648 7.34625 9.33243 7.32052 9.20311C7.2948 9.07379 7.23131 8.955 7.13807 8.86177C7.04484 8.76853 6.92605 8.70504 6.79673 8.67931C6.66741 8.65359 6.53336 8.66679 6.41154 8.71725C6.28973 8.76771 6.18561 8.85316 6.11235 8.96279C6.0391 9.07242 6 9.20132 6 9.33317C6 9.50998 6.07024 9.67955 6.19526 9.80457C6.32029 9.9296 6.48986 9.99984 6.66667 9.99984ZM11.3333 1.99984H10.6667V1.33317C10.6667 1.15636 10.5964 0.98679 10.4714 0.861766C10.3464 0.736742 10.1768 0.666504 10 0.666504C9.82319 0.666504 9.65362 0.736742 9.52859 0.861766C9.40357 0.98679 9.33333 1.15636 9.33333 1.33317V1.99984H4V1.33317C4 1.15636 3.92976 0.98679 3.80474 0.861766C3.67971 0.736742 3.51014 0.666504 3.33333 0.666504C3.15652 0.666504 2.98695 0.736742 2.86193 0.861766C2.7369 0.98679 2.66667 1.15636 2.66667 1.33317V1.99984H2C1.46957 1.99984 0.960859 2.21055 0.585787 2.58562C0.210714 2.9607 0 3.4694 0 3.99984V13.3332C0 13.8636 0.210714 14.3723 0.585787 14.7474C0.960859 15.1225 1.46957 15.3332 2 15.3332H11.3333C11.8638 15.3332 12.3725 15.1225 12.7475 14.7474C13.1226 14.3723 13.3333 13.8636 13.3333 13.3332V3.99984C13.3333 3.4694 13.1226 2.9607 12.7475 2.58562C12.3725 2.21055 11.8638 1.99984 11.3333 1.99984ZM12 13.3332C12 13.51 11.9298 13.6796 11.8047 13.8046C11.6797 13.9296 11.5101 13.9998 11.3333 13.9998H2C1.82319 13.9998 1.65362 13.9296 1.5286 13.8046C1.40357 13.6796 1.33333 13.51 1.33333 13.3332V7.33317H12V13.3332ZM12 5.99984H1.33333V3.99984C1.33333 3.82303 1.40357 3.65346 1.5286 3.52843C1.65362 3.40341 1.82319 3.33317 2 3.33317H2.66667V3.99984C2.66667 4.17665 2.7369 4.34622 2.86193 4.47124C2.98695 4.59627 3.15652 4.6665 3.33333 4.6665C3.51014 4.6665 3.67971 4.59627 3.80474 4.47124C3.92976 4.34622 4 4.17665 4 3.99984V3.33317H9.33333V3.99984C9.33333 4.17665 9.40357 4.34622 9.52859 4.47124C9.65362 4.59627 9.82319 4.6665 10 4.6665C10.1768 4.6665 10.3464 4.59627 10.4714 4.47124C10.5964 4.34622 10.6667 4.17665 10.6667 3.99984V3.33317H11.3333C11.5101 3.33317 11.6797 3.40341 11.8047 3.52843C11.9298 3.65346 12 3.82303 12 3.99984V5.99984ZM3.33333 9.99984C3.46519 9.99984 3.59408 9.96074 3.70371 9.88748C3.81335 9.81423 3.89879 9.71011 3.94925 9.58829C3.99971 9.46648 4.01291 9.33243 3.98719 9.20311C3.96147 9.07379 3.89797 8.955 3.80474 8.86177C3.7115 8.76853 3.59271 8.70504 3.46339 8.67931C3.33407 8.65359 3.20003 8.66679 3.07821 8.71725C2.95639 8.76771 2.85227 8.85316 2.77902 8.96279C2.70577 9.07242 2.66667 9.20132 2.66667 9.33317C2.66667 9.50998 2.7369 9.67955 2.86193 9.80457C2.98695 9.9296 3.15652 9.99984 3.33333 9.99984ZM3.33333 12.6665C3.46519 12.6665 3.59408 12.6274 3.70371 12.5542C3.81335 12.4809 3.89879 12.3768 3.94925 12.255C3.99971 12.1331 4.01291 11.9991 3.98719 11.8698C3.96147 11.7405 3.89797 11.6217 3.80474 11.5284C3.7115 11.4352 3.59271 11.3717 3.46339 11.346C3.33407 11.3203 3.20003 11.3335 3.07821 11.3839C2.95639 11.4344 2.85227 11.5198 2.77902 11.6295C2.70577 11.7391 2.66667 11.868 2.66667 11.9998C2.66667 12.1766 2.7369 12.3462 2.86193 12.4712C2.98695 12.5963 3.15652 12.6665 3.33333 12.6665Z" fill="#2683C6"/>
</svg>
