<svg width="14" height="15" viewBox="0 0 14 15" fill="none" xmlns="http://www.w3.org/2000/svg">
<path d="M13 11.9998L12.3332 12.7292C11.9796 13.1159 11.5001 13.3332 11.0001 13.3332C10.5001 13.3332 10.0205 13.1159 9.66692 12.7292C9.31281 12.3432 8.83332 12.1265 8.33345 12.1265C7.83359 12.1265 7.35409 12.3432 6.99998 12.7292M1 13.3332H2.11636C2.44248 13.3332 2.60554 13.3332 2.75899 13.2963C2.89504 13.2637 3.0251 13.2098 3.1444 13.1367C3.27895 13.0542 3.39425 12.9389 3.62486 12.7083L12 4.33316C12.5523 3.78087 12.5523 2.88544 12 2.33316C11.4477 1.78087 10.5523 1.78087 10 2.33316L1.62484 10.7083C1.39424 10.9389 1.27894 11.0542 1.19648 11.1888C1.12338 11.3081 1.0695 11.4381 1.03684 11.5742C1 11.7276 1 11.8907 1 12.2168V13.3332Z" stroke="#3D4459" stroke-width="2" stroke-linecap="round" stroke-linejoin="round"/>
</svg>
