<svg width="89" height="90" viewBox="0 0 89 90" fill="none" xmlns="http://www.w3.org/2000/svg">
<path d="M77.875 18.75C77.875 24.9632 62.9325 30 44.5 30C26.0675 30 11.125 24.9632 11.125 18.75M77.875 18.75C77.875 12.5368 62.9325 7.5 44.5 7.5C26.0675 7.5 11.125 12.5368 11.125 18.75M77.875 18.75V71.25C77.875 77.475 63.0417 82.5 44.5 82.5C25.9583 82.5 11.125 77.475 11.125 71.25V18.75M77.875 36.4508C77.875 42.6758 63.0417 47.7008 44.5 47.7008C25.9583 47.7008 11.125 42.6758 11.125 36.4508M77.875 54.15C77.875 60.375 63.0417 65.4 44.5 65.4C25.9583 65.4 11.125 60.375 11.125 54.15" stroke="black" stroke-width="3" stroke-linecap="round" stroke-linejoin="round"/>
</svg>
