<svg width="90" height="90" viewBox="0 0 90 90" fill="none" xmlns="http://www.w3.org/2000/svg">
<path d="M41.2915 16.875H68.3623C72.5161 16.875 74.5929 16.875 76.1794 17.6925C77.575 18.4115 78.7096 19.5589 79.4206 20.9701C80.229 22.5744 80.229 24.6746 80.229 28.875V33.75C80.229 37.2446 80.229 38.9918 79.6644 40.3701C78.9117 42.2078 77.4679 43.6679 75.6506 44.4291C74.2876 45 72.5597 45 69.104 45M48.7082 73.125H21.6373C17.4836 73.125 15.4068 73.125 13.8202 72.3075C12.4247 71.5885 11.2901 70.4411 10.579 69.0299C9.77067 67.4256 9.77067 65.3254 9.77067 61.125V56.25C9.77067 52.7554 9.77067 51.0082 10.3352 49.6299C11.088 47.7922 12.5318 46.3321 14.3491 45.5709C15.7121 45 17.4399 45 20.8957 45M38.6957 54.375H51.304C52.3424 54.375 52.8616 54.375 53.2583 54.1706C53.6072 53.9909 53.8908 53.704 54.0686 53.3512C54.2707 52.9501 54.2707 52.4251 54.2707 51.375V38.625C54.2707 37.5749 54.2707 37.0499 54.0686 36.6488C53.8908 36.296 53.6072 36.0091 53.2583 35.8294C52.8616 35.625 52.3424 35.625 51.304 35.625H38.6957C37.6572 35.625 37.138 35.625 36.7414 35.8294C36.3925 36.0091 36.1089 36.296 35.9311 36.6488C35.729 37.0499 35.729 37.5749 35.729 38.625V51.375C35.729 52.4251 35.729 52.9501 35.9311 53.3512C36.1089 53.704 36.3925 53.9909 36.7414 54.1706C37.138 54.375 37.6572 54.375 38.6957 54.375ZM66.5082 82.5H79.1165C80.1549 82.5 80.6741 82.5 81.0708 82.2956C81.4197 82.1159 81.7033 81.829 81.8811 81.4762C82.0832 81.0751 82.0832 80.5501 82.0832 79.5V66.75C82.0832 65.6999 82.0832 65.1749 81.8811 64.7738C81.7033 64.421 81.4197 64.1341 81.0708 63.9544C80.6741 63.75 80.1549 63.75 79.1165 63.75H66.5082C65.4697 63.75 64.9505 63.75 64.5539 63.9544C64.205 64.1341 63.9214 64.421 63.7436 64.7738C63.5415 65.1749 63.5415 65.6999 63.5415 66.75V79.5C63.5415 80.5501 63.5415 81.0751 63.7436 81.4762C63.9214 81.829 64.205 82.1159 64.5539 82.2956C64.9505 82.5 65.4697 82.5 66.5082 82.5ZM10.8832 26.25H23.4915C24.5299 26.25 25.0492 26.25 25.4458 26.0456C25.7947 25.8659 26.0783 25.579 26.2561 25.2262C26.4582 24.8251 26.4582 24.3001 26.4582 23.25V10.5C26.4582 9.4499 26.4582 8.92485 26.2561 8.52377C26.0783 8.17096 25.7947 7.88413 25.4458 7.70436C25.0492 7.5 24.5299 7.5 23.4915 7.5H10.8832C9.84474 7.5 9.32552 7.5 8.9289 7.70436C8.58001 7.88413 8.29636 8.17096 8.1186 8.52377C7.9165 8.92485 7.9165 9.4499 7.9165 10.5V23.25C7.9165 24.3001 7.9165 24.8251 8.1186 25.2262C8.29636 25.579 8.58001 25.8659 8.9289 26.0456C9.32552 26.25 9.84474 26.25 10.8832 26.25Z" stroke="black" stroke-width="3" stroke-linecap="round" stroke-linejoin="round"/>
</svg>
