<svg width="20" height="20" viewBox="0 0 20 20" fill="none" xmlns="http://www.w3.org/2000/svg">
<path d="M7.50016 8.33342H8.3335C8.55451 8.33342 8.76647 8.24562 8.92275 8.08934C9.07903 7.93306 9.16683 7.7211 9.16683 7.50008C9.16683 7.27907 9.07903 7.06711 8.92275 6.91083C8.76647 6.75455 8.55451 6.66675 8.3335 6.66675H7.50016C7.27915 6.66675 7.06719 6.75455 6.91091 6.91083C6.75463 7.06711 6.66683 7.27907 6.66683 7.50008C6.66683 7.7211 6.75463 7.93306 6.91091 8.08934C7.06719 8.24562 7.27915 8.33342 7.50016 8.33342V8.33342ZM7.50016 10.0001C7.27915 10.0001 7.06719 10.0879 6.91091 10.2442C6.75463 10.4004 6.66683 10.6124 6.66683 10.8334C6.66683 11.0544 6.75463 11.2664 6.91091 11.4227C7.06719 11.579 7.27915 11.6667 7.50016 11.6667H12.5002C12.7212 11.6667 12.9331 11.579 13.0894 11.4227C13.2457 11.2664 13.3335 11.0544 13.3335 10.8334C13.3335 10.6124 13.2457 10.4004 13.0894 10.2442C12.9331 10.0879 12.7212 10.0001 12.5002 10.0001H7.50016ZM16.6668 7.45008C16.6581 7.37353 16.6414 7.29811 16.6168 7.22508V7.15008C16.5768 7.0644 16.5233 6.98564 16.4585 6.91675V6.91675L11.4585 1.91675C11.3896 1.85193 11.3108 1.79848 11.2252 1.75841C11.2003 1.75488 11.175 1.75488 11.1502 1.75841C11.0655 1.70987 10.972 1.6787 10.8752 1.66675H5.8335C5.17045 1.66675 4.53457 1.93014 4.06573 2.39898C3.59689 2.86782 3.3335 3.50371 3.3335 4.16675V15.8334C3.3335 16.4965 3.59689 17.1323 4.06573 17.6012C4.53457 18.07 5.17045 18.3334 5.8335 18.3334H14.1668C14.8299 18.3334 15.4658 18.07 15.9346 17.6012C16.4034 17.1323 16.6668 16.4965 16.6668 15.8334V7.50008C16.6668 7.50008 16.6668 7.50008 16.6668 7.45008ZM11.6668 4.50841L13.8252 6.66675H12.5002C12.2791 6.66675 12.0672 6.57895 11.9109 6.42267C11.7546 6.26639 11.6668 6.05443 11.6668 5.83341V4.50841ZM15.0002 15.8334C15.0002 16.0544 14.9124 16.2664 14.7561 16.4227C14.5998 16.579 14.3878 16.6667 14.1668 16.6667H5.8335C5.61248 16.6667 5.40052 16.579 5.24424 16.4227C5.08796 16.2664 5.00016 16.0544 5.00016 15.8334V4.16675C5.00016 3.94573 5.08796 3.73377 5.24424 3.57749C5.40052 3.42121 5.61248 3.33341 5.8335 3.33341H10.0002V5.83341C10.0002 6.49646 10.2636 7.13234 10.7324 7.60118C11.2012 8.07002 11.8371 8.33342 12.5002 8.33342H15.0002V15.8334ZM12.5002 13.3334H7.50016C7.27915 13.3334 7.06719 13.4212 6.91091 13.5775C6.75463 13.7338 6.66683 13.9457 6.66683 14.1667C6.66683 14.3878 6.75463 14.5997 6.91091 14.756C7.06719 14.9123 7.27915 15.0001 7.50016 15.0001H12.5002C12.7212 15.0001 12.9331 14.9123 13.0894 14.756C13.2457 14.5997 13.3335 14.3878 13.3335 14.1667C13.3335 13.9457 13.2457 13.7338 13.0894 13.5775C12.9331 13.4212 12.7212 13.3334 12.5002 13.3334Z" fill="#000"/>
</svg>
