<svg width="14" height="19" viewBox="0 0 14 19" fill="none" xmlns="http://www.w3.org/2000/svg">
<path d="M7.00016 6.08366L8.76349 10.3237L13.3402 10.6903L9.85349 13.677L10.9185 18.1437L7.00016 15.7503L3.08182 18.1437L4.14682 13.677L0.660156 10.6903L5.23682 10.3237L7.00016 6.08366ZM7.00016 10.4228L6.38432 11.9037L4.78766 12.0312L6.00432 13.0737L5.63182 14.6328L7.00016 13.797L8.36766 14.6328L7.99599 13.0745L9.21182 12.0312L7.61599 11.9037L7.00016 10.4228ZM3.66682 0.666992V8.16699H2.00016V0.666992H3.66682ZM12.0002 0.666992V8.16699H10.3335V0.666992H12.0002ZM7.83349 0.666992V4.83366H6.16682V0.666992H7.83349Z" fill="#039855"/>
</svg>
