<svg width="14" height="14" viewBox="0 0 14 14" fill="none" xmlns="http://www.w3.org/2000/svg">
<path d="M9.66667 10.3342L13 7.00086M13 7.00086L9.66667 3.66752M13 7.00086H5M7 10.3342C7 10.5312 7 10.6298 6.99268 10.7151C6.91655 11.6022 6.26324 12.3321 5.39002 12.5057C5.30602 12.5224 5.20801 12.5333 5.01223 12.5551L4.3313 12.6307C3.30832 12.7444 2.7968 12.8012 2.39044 12.6712C1.84862 12.4978 1.40628 12.1019 1.17412 11.5825C1 11.193 1 10.6783 1 9.64906V4.35265C1 3.32336 1 2.80872 1.17412 2.4192C1.40628 1.89984 1.84862 1.50392 2.39044 1.33054C2.79681 1.2005 3.3083 1.25733 4.33129 1.371L5.01223 1.44666C5.20808 1.46842 5.306 1.4793 5.39002 1.49601C6.26324 1.66963 6.91655 2.39955 6.99268 3.28659C7 3.37194 7 3.47047 7 3.66752" stroke="#3D4459" stroke-width="1.5" stroke-linecap="round" stroke-linejoin="round"/>
</svg>
