<svg width="12" height="16" viewBox="0 0 12 16" fill="none" xmlns="http://www.w3.org/2000/svg">
<path d="M7.33366 1.51265V4.26634C7.33366 4.63971 7.33366 4.82639 7.40632 4.969C7.47024 5.09444 7.57222 5.19643 7.69766 5.26035C7.84027 5.33301 8.02696 5.33301 8.40033 5.33301H11.154M11.3337 6.65849V11.4663C11.3337 12.5864 11.3337 13.1465 11.1157 13.5743C10.9239 13.9506 10.618 14.2566 10.2416 14.4484C9.81382 14.6663 9.25376 14.6663 8.13366 14.6663H3.86699C2.74689 14.6663 2.18683 14.6663 1.75901 14.4484C1.38269 14.2566 1.07673 13.9506 0.884979 13.5743C0.666992 13.1465 0.666992 12.5864 0.666992 11.4663V4.53301C0.666992 3.4129 0.666992 2.85285 0.884979 2.42503C1.07673 2.0487 1.38269 1.74274 1.75901 1.55099C2.18683 1.33301 2.74689 1.33301 3.86699 1.33301H6.00818C6.49736 1.33301 6.74195 1.33301 6.97212 1.38827C7.17619 1.43726 7.37128 1.51807 7.55023 1.62773C7.75206 1.75141 7.92501 1.92436 8.27092 2.27027L10.3964 4.39575C10.7423 4.74165 10.9153 4.9146 11.0389 5.11644C11.1486 5.29538 11.2294 5.49047 11.2784 5.69454C11.3337 5.92472 11.3337 6.16931 11.3337 6.65849Z" stroke="#7F56D9" stroke-width="1.33333" stroke-linecap="round" stroke-linejoin="round"/>
</svg>
