<svg width="20" height="20" viewBox="0 0 20 20" fill="none" xmlns="http://www.w3.org/2000/svg">
<g clip-path="url(#clip0_484_82528)">
<path d="M15.8335 17.4999H4.16683C3.94582 17.4999 3.73385 17.4121 3.57757 17.2558C3.42129 17.0995 3.3335 16.8875 3.3335 16.6665V9.16652H0.833496L9.43933 1.34319C9.59276 1.20358 9.79273 1.12622 10.0002 1.12622C10.2076 1.12622 10.4076 1.20358 10.561 1.34319L19.1668 9.16652H16.6668V16.6665C16.6668 16.8875 16.579 17.0995 16.4228 17.2558C16.2665 17.4121 16.0545 17.4999 15.8335 17.4999ZM5.00016 15.8332H15.0002V7.63068L10.0002 3.08569L5.00016 7.63068V15.8332ZM6.66683 12.4999H13.3335V14.1665H6.66683V12.4999Z" fill="#2683C6"/>
</g>
<defs>
<clipPath id="clip0_484_82528">
<rect width="20" height="20" fill="white"/>
</clipPath>
</defs>
</svg>
