<svg width="981" height="838" viewBox="0 0 981 838" fill="none" xmlns="http://www.w3.org/2000/svg">
<g clip-path="url(#clip0_309_447)">
<path d="M754.99 134.86C757.63 139.9 760.61 144.81 762.32 150.33C763.66 154.66 764.22 159.33 766.15 163.37C767.19 165.54 768.59 167.46 769.62 169.64C770.64 171.81 771.27 174.18 771.89 176.53C773.2 181.52 774.52 186.53 775.07 191.7C775.53 196.09 775.39 200.76 773.5 204.7C771.02 209.88 766.01 212.94 761.07 215.07C755.87 217.31 750.15 218.88 744.76 217.43C740.72 216.35 737.22 213.67 733.95 210.87C726.59 204.58 719.88 197.44 713.18 190.31C708.53 185.36 703.86 180.39 699.82 174.81C695.62 169 692.15 162.58 688.21 156.54C682.47 147.74 675.48 139.15 674.09 128.37C672.55 116.37 678.55 104.4 686.54 95.9304C691.65 90.5104 697.86 86.0004 704.81 84.6804C709.05 83.8704 713.39 84.2804 717.61 85.0504C723.46 86.1204 729.21 87.8804 734.7 90.3104C741.08 93.1304 741.01 94.3904 742.67 101.59C745.37 113.26 749.52 124.5 754.97 134.89L754.99 134.86Z" fill="#8C776B"/>
<path d="M724.819 107.38C725.289 95.19 715.039 84.89 701.929 84.38C688.819 83.87 677.799 93.35 677.329 105.54C677.249 107.58 677.499 109.55 677.979 111.44C677.979 111.92 677.979 112.41 677.949 112.92C677.709 117.32 677.739 121.75 678.429 126.13C679.779 134.64 683.839 142.66 691.929 147.78C694.619 149.49 697.739 150.83 701.029 150.93C705.459 151.07 709.609 148.95 712.789 146.25C723.309 137.31 724.729 123.32 724.529 110.06C724.679 109.18 724.789 108.29 724.829 107.38H724.819Z" fill="#F0CFC2"/>
<path d="M686.381 83.9902C681.141 88.0902 675.611 92.6002 673.711 98.9802C672.051 104.56 673.421 110.91 670.761 116.09C668.281 120.91 662.701 123.85 661.161 129.04C659.651 134.1 662.811 139.69 667.371 142.36C668.431 142.98 669.601 143.51 670.331 144.5C670.991 145.39 671.201 146.54 671.291 147.65C671.501 150.13 671.251 152.65 670.551 155.03C670.351 155.71 670.111 156.42 670.251 157.12C670.541 158.58 672.271 159.24 673.761 159.27C675.241 159.3 676.801 158.98 678.171 159.55C679.081 159.93 679.781 160.66 680.501 161.32C683.161 163.78 687.481 165.58 690.211 163.2C691.911 161.72 692.211 159.11 691.601 156.94C690.991 154.77 689.641 152.9 688.431 151C686.031 147.22 684.121 143.16 682.221 139.11C680.581 135.62 678.921 132.06 678.471 128.23C678.081 124.94 678.611 121.61 679.141 118.34C679.611 115.43 680.081 112.52 680.541 109.61C680.921 107.26 681.311 104.85 682.471 102.77C684.081 99.8702 686.951 97.9302 689.161 95.4502C691.971 92.3002 693.631 88.1802 693.921 83.9702C694.441 76.4102 689.871 81.2702 686.401 83.9902H686.381Z" fill="#8C776B"/>
<path d="M716.921 100C721.421 102.67 723.861 108.39 722.691 113.48C721.631 118.06 718.031 121.89 717.701 126.57C717.351 131.58 720.861 136.28 720.411 141.29C720.081 144.98 717.691 148.12 715.521 151.27C717.571 151.42 719.571 151.76 721.501 152.29C722.051 151.62 722.681 151.02 723.441 150.58C725.711 149.26 728.631 149.59 730.981 148.4C738.011 144.84 733.751 132.67 739.471 127.25C740.931 125.87 742.901 125.1 744.261 123.62C747.081 120.56 746.291 115.65 744.581 111.86C742.871 108.07 740.381 104.42 740.271 100.26C740.211 98.3001 740.701 96.3401 740.431 94.4001C739.761 89.6301 734.971 86.7201 730.701 84.5101C723.141 80.5901 715.321 76.5901 706.831 75.9001C699.441 75.3001 685.891 80.9201 690.101 90.5701C694.411 100.45 709.351 95.5101 716.931 100.01L716.921 100Z" fill="#8C776B"/>
<path d="M671.35 211.05C667.85 218.98 664.18 227.72 656.75 231.79C652.35 234.2 647.23 234.58 642.31 234.51C633.61 234.39 625.01 233.03 616.43 231.66C612.99 231.11 609.37 230.47 606.74 228.15C604.11 225.82 603.04 221.2 605.48 218.56C617.97 218.49 630.46 218.42 642.95 218.36C644.11 218.36 645.32 218.34 646.36 217.78C647.63 217.1 648.42 215.75 649.13 214.47C654.58 204.6 659.28 194.3 663.17 183.69C664.67 179.61 666.08 175.41 668.64 171.93C671.2 168.45 675.17 165.75 679.33 166.05C699.79 167.53 674.65 203.59 671.35 211.06V211.05Z" fill="#F0CFC2"/>
<path d="M599.491 218.25C599.061 218.12 598.591 217.99 598.151 218.11C597.701 218.24 597.361 218.6 596.951 218.84C595.641 219.61 594.051 218.95 592.671 218.4C591.291 217.85 589.501 217.5 588.481 218.64C588.071 219.1 587.881 219.71 587.711 220.3C587.161 222.23 586.791 224.4 587.731 226.13C588.211 227 588.981 227.66 589.821 228.16C594.061 230.7 599.411 229.35 604.341 229.47C605.241 229.49 606.181 229.56 607.021 229.18C609.211 228.18 609.671 224.1 608.581 222.14C607.051 219.39 602.231 219.05 599.491 218.24V218.25Z" fill="#F0CFC2"/>
<path d="M616.83 232.1C616.97 232.86 617.13 233.66 617.6 234.25C618.32 235.16 619.57 235.36 620.7 235.5C629.25 236.55 637.84 237.3 646.45 237.74C650.5 237.95 654.88 238 658.27 235.6C660.57 233.98 662.1 231.43 663.55 228.97C666.16 224.55 668.77 220.13 671.39 215.71C675.52 208.71 679.68 201.66 682.48 194C685.28 186.34 686.66 177.94 685.06 170.01C684.6 167.74 683.8 165.37 682 164.01C678.93 161.7 674.51 163.33 671.39 165.69C669.7 166.97 668.14 168.45 666.88 170.18C665.43 172.17 664.41 174.44 663.4 176.7C657.87 189.01 652.35 201.31 646.82 213.62C646.34 214.69 645.77 215.85 644.74 216.35C644.02 216.69 643.19 216.64 642.41 216.59C634.5 216.01 626.58 215.35 618.66 214.86C614.42 214.6 614.7 216.23 615.11 220.2C615.53 224.19 616.1 228.16 616.83 232.1Z" fill="#9AAAB5"/>
<path d="M700.91 314.75C699.85 323.81 699.71 332.94 699.61 342.06C699.51 351.45 699.44 360.83 699.42 370.22C699.39 380.26 699.4 390.29 699.65 400.33C700.34 428.55 701.24 469.51 703.78 497.63C707.73 498.6 711.85 498.88 715.9 498.48C718.67 463.14 719.47 414.37 726.87 379.71C732.84 351.72 743.42 324.79 743.36 296.17C743.34 287.59 742.04 277.97 736.13 271.29C731.8 266.38 723.11 261.69 716.92 266.01C711.47 269.81 709.46 279.21 707.56 285.07C704.43 294.74 702.09 304.67 700.91 314.77V314.75Z" fill="#262626"/>
<path d="M657.329 289.39C655.159 298.78 653.029 325.14 651.729 334.7C650.389 344.55 649.079 354.4 647.799 364.25C646.439 374.79 645.109 385.33 643.999 395.9C640.869 425.62 637.799 468.29 636.369 498.11C639.839 499.58 646.649 500.36 650.389 500.4C657.619 463.6 664.489 412.7 675.849 377.14C685.019 348.44 696.159 321.2 699.919 291.14C701.049 282.12 698.919 272.28 694.429 264.57C691.139 258.92 683.839 252.99 677.629 256.8C672.159 260.16 669.859 253.02 667.349 258.95C663.209 268.74 659.759 278.91 657.329 289.38V289.39Z" fill="#262626"/>
<path d="M651.07 493.21C651.51 493.27 651.96 493.36 652.3 493.64C652.82 494.06 652.95 494.79 653.04 495.46C654.33 505.31 652.17 515.34 650.68 525.17C649.64 532.05 650.11 532.16 648.08 540.07C647.01 540.48 643.25 540.95 643.21 539.8C642.98 533.72 643.08 531.76 643.5 525.69C643.57 524.69 643.65 523.66 643.31 522.71C642.97 521.76 642.13 520.92 641.12 520.94C639.43 520.97 638.73 523.1 638.51 524.78C638.14 527.55 637.77 530.32 637.39 533.09C636.95 536.37 636.31 535.89 633.66 537.88C632.02 539.11 629.91 539.46 627.89 539.77C622.5 540.6 617.08 541.44 611.62 541.53C609.24 541.57 606.77 541.45 604.68 540.32C602.06 538.91 600.45 536.15 599.4 533.37C597.82 529.23 597.38 528.15 600.45 524.97C602.67 522.67 606.12 522.08 609.32 522.07C612.52 522.07 615.77 522.5 618.88 521.76C621.22 521.2 623.36 520 625.41 518.75C627.53 517.46 629.67 516.02 630.96 513.91C632.27 511.76 632.55 509.17 632.75 506.66C633.03 503.12 631.79 496.12 635.3 493.85C638.38 491.85 647.72 492.74 651.06 493.23L651.07 493.21Z" fill="#383838"/>
<path d="M708.841 488.94C711.571 488.69 714.571 489.54 716.201 491.75C716.961 492.78 717.371 494.02 717.681 495.26C720.271 505.37 717.361 516.45 720.841 526.29C721.421 527.94 722.181 529.54 722.561 531.25C723.131 533.85 721.751 533.48 722.171 536.1C722.311 536.95 722.531 537.81 722.401 538.66C722.141 540.45 720.481 541.66 718.931 542.57C716.291 544.12 713.281 545.48 710.271 544.94C708.661 544.65 707.201 543.84 705.771 543.03C704.981 542.59 704.181 542.13 703.551 541.48C702.801 540.69 702.351 539.67 701.991 538.65C699.591 531.88 701.281 527.56 701.121 520.37C700.961 513.27 699.971 506.2 700.021 499.09C700.031 496.95 699.631 493.59 701.151 491.82C702.751 489.96 706.541 489.15 708.831 488.94H708.841Z" fill="#383838"/>
<path d="M627.329 333.29C624.349 336.82 620.889 341.02 621.219 346.39C621.589 352.49 626.699 355.87 631.169 356.39C635.639 356.91 640.379 355.89 644.429 358.52C649.609 361.88 652.019 370.12 656.479 375.05C660.649 379.67 666.649 380.99 671.679 378.4C676.719 375.8 680.559 369.73 685.729 367.64C695.799 363.56 708.209 375.43 716.409 366.45C719.799 362.74 721.459 356.12 725.519 354.02C730.139 351.63 735.189 356.44 740.089 355.67C744.899 354.92 748.489 348.78 749.579 342.33C750.669 335.89 749.789 329.16 748.909 322.66C747.529 312.48 746.149 302.3 744.769 292.12C743.629 283.69 741.649 273.85 735.739 270.97C732.119 269.21 728.139 270.74 724.479 272.33C713.749 276.98 703.049 282.08 691.939 284.54C685.149 286.04 682.189 275.68 675.349 274.46C667.659 273.08 663.739 267 658.859 276.45C650.439 292.77 638.489 320.09 627.349 333.29H627.329Z" fill="#EBEFEB"/>
<path d="M672.201 173.31C669.731 181.85 668.661 190.71 667.331 199.5C664.341 219.23 660.001 238.73 655.661 258.2C654.371 263.99 653.081 269.78 651.791 275.58C651.631 276.31 651.461 277.07 651.621 277.8C651.761 278.43 652.121 278.98 652.501 279.5C654.421 282.12 656.991 284.26 659.911 285.68C664.651 287.97 670.071 288.31 675.331 288.42C696.161 288.87 717.061 286.45 737.241 281.26C738.421 280.96 739.651 280.62 740.571 279.81C741.961 278.59 742.341 276.6 742.481 274.75C743.331 263.46 738.411 252.6 736.721 241.41C735.481 233.22 735.981 224.84 734.881 216.63C733.951 209.64 731.881 202.85 730.961 195.86C730.311 190.93 730.251 185.92 729.291 181.05C728.231 175.63 726.091 170.43 725.541 164.94C725.281 162.3 725.381 159.61 724.731 157.05C724.071 154.48 722.441 151.95 719.921 151.16C717.761 150.48 715.431 151.19 713.261 151.87C708.281 153.43 703.181 154.85 697.961 155.01C692.501 155.17 685.551 150.34 681.361 154.37C676.631 158.92 673.961 167.21 672.191 173.32L672.201 173.31Z" fill="#91A1AB"/>
<path d="M555.429 63.3896C555.409 48.4996 556.439 17.9196 553.049 6.80965C550.279 -2.29035 536.059 0.259646 532.169 0.519646C525.189 0.979646 518.209 0.519646 511.219 1.18965C495.469 2.69965 482.849 -1.45035 467.119 1.10965C465.229 1.41965 460.119 3.86965 458.509 6.95965C455.189 13.3396 456.189 35.4896 456.209 47.7996C456.329 140.51 456.259 216.55 455.749 309.26C455.539 347.22 454.919 367.16 456.359 393.35C456.849 402.22 457.719 414.74 459.839 420.84C463.449 431.24 473.099 429.57 477.959 429.3C500.899 428.03 523.069 434.65 545.899 428.13C547.519 427.67 549.199 427.14 550.579 424.49C554.059 417.83 555.089 388.02 555.049 375.14C554.769 274.13 555.469 221.9 555.469 127.4C555.469 105.94 555.459 94.1996 555.419 63.3796L555.429 63.3896Z" fill="#F7F7F7"/>
<path d="M536.78 106.6C536.78 105.12 537.24 102.07 535.7 100.96C534.45 100.05 528.02 100.31 526.26 100.33C523.1 100.38 519.95 100.33 516.79 100.4C509.67 100.55 503.96 100.14 496.85 100.4C496 100.43 493.68 100.68 492.96 100.98C491.46 101.62 491.91 103.82 491.92 105.05C491.97 114.29 491.94 121.87 491.71 131.11C491.62 134.89 491.33 136.88 491.99 139.49C492.21 140.37 492.6 141.62 493.56 142.23C495.19 143.27 499.55 143.1 501.75 143.07C512.12 142.94 522.15 143.6 532.47 142.95C533.2 142.9 533.96 142.85 534.59 142.59C536.16 141.93 536.63 138.95 536.61 137.67C536.48 127.6 536.8 122.39 536.8 112.97C536.8 110.83 536.8 109.66 536.78 106.59V106.6Z" fill="#5E5E5E"/>
<path d="M534.371 106.9C534.371 105.87 534.781 103.74 533.411 102.97C532.291 102.34 526.561 102.51 524.991 102.53C522.181 102.56 519.361 102.53 516.551 102.58C510.201 102.69 505.121 102.4 498.771 102.58C498.011 102.6 495.951 102.77 495.301 102.99C493.961 103.43 494.371 104.97 494.371 105.83C494.421 112.27 494.391 117.56 494.191 124C494.111 126.64 493.851 128.02 494.441 129.84C494.641 130.46 494.991 131.33 495.841 131.75C496.811 132.23 498.881 132.34 500.731 132.35C500.761 133.33 500.701 133.78 500.731 135.19C500.731 135.75 500.601 135.84 500.991 136.13C501.121 136.23 501.361 136.37 501.931 136.44C502.541 136.51 503.791 136.53 504.961 136.54C504.981 137.45 504.961 137.93 505.021 139.31C505.041 139.74 504.861 139.96 505.131 140.25C505.221 140.35 505.381 140.49 505.781 140.56C506.451 140.68 508.241 140.66 509.151 140.66C513.411 140.65 517.531 140.72 521.771 140.65C522.071 140.65 522.381 140.64 522.641 140.61C523.291 140.54 523.481 140.2 523.471 140.06C523.421 138.92 523.551 138.34 523.551 137.28C523.551 137.04 523.551 136.91 523.551 136.56C524.091 136.56 524.631 136.56 525.181 136.55C525.621 136.55 526.071 136.54 526.441 136.51C527.381 136.44 527.661 136.1 527.651 135.96C527.581 134.83 527.761 134.24 527.761 133.18C527.761 132.94 527.761 132.81 527.751 132.46C527.751 132.44 527.751 132.42 527.751 132.39C528.681 132.36 529.611 132.33 530.551 132.28C531.201 132.25 531.881 132.21 532.441 132.03C533.841 131.57 534.261 129.5 534.241 128.6C534.131 121.58 534.411 117.95 534.411 111.38C534.411 109.89 534.411 109.07 534.391 106.93L534.371 106.9Z" fill="#303030"/>
<path d="M499.739 108.59C499.739 107.47 499.739 106.57 499.739 105.45C499.739 105.32 499.729 104.95 499.719 104.84C499.699 104.6 499.619 104.62 499.579 104.62C499.229 104.62 499.089 104.62 498.599 104.64C498.459 104.64 498.379 104.58 498.289 104.68C498.259 104.71 498.209 104.78 498.189 104.93C498.149 105.19 498.159 105.87 498.159 106.22C498.159 107.85 498.139 109.43 498.159 111.05C498.159 111.17 498.159 111.28 498.169 111.38C498.189 111.63 498.309 111.7 498.349 111.7C498.729 111.68 498.919 111.73 499.269 111.73C499.349 111.73 499.389 111.73 499.509 111.73C499.569 111.73 499.679 111.8 499.719 111.56C499.749 111.36 499.739 110.35 499.739 110.07C499.739 109.57 499.739 109.08 499.739 108.58V108.59Z" fill="#F7F7F7"/>
<path d="M502.81 108.59C502.81 107.47 502.81 106.57 502.81 105.45C502.81 105.32 502.8 104.95 502.79 104.84C502.77 104.6 502.69 104.62 502.65 104.62C502.3 104.62 502.16 104.62 501.67 104.64C501.53 104.64 501.45 104.58 501.36 104.68C501.33 104.71 501.28 104.78 501.26 104.93C501.22 105.19 501.23 105.87 501.23 106.22C501.23 107.85 501.21 109.43 501.23 111.05C501.23 111.17 501.23 111.28 501.24 111.38C501.26 111.63 501.38 111.7 501.42 111.7C501.8 111.68 501.99 111.73 502.34 111.73C502.42 111.73 502.46 111.73 502.58 111.73C502.64 111.73 502.75 111.8 502.79 111.56C502.82 111.36 502.81 110.35 502.81 110.07C502.81 109.57 502.81 109.08 502.81 108.58V108.59Z" fill="#F7F7F7"/>
<path d="M505.819 108.59C505.819 107.47 505.819 106.57 505.819 105.45C505.819 105.32 505.809 104.95 505.799 104.84C505.779 104.6 505.699 104.62 505.659 104.62C505.309 104.62 505.169 104.62 504.679 104.64C504.539 104.64 504.459 104.58 504.369 104.68C504.339 104.71 504.289 104.78 504.269 104.93C504.229 105.19 504.239 105.87 504.239 106.22C504.239 107.85 504.219 109.43 504.239 111.05C504.239 111.17 504.239 111.28 504.249 111.38C504.269 111.63 504.389 111.7 504.429 111.7C504.809 111.68 504.999 111.73 505.349 111.73C505.429 111.73 505.469 111.73 505.589 111.73C505.649 111.73 505.759 111.8 505.799 111.56C505.829 111.36 505.819 110.35 505.819 110.07C505.819 109.57 505.819 109.08 505.819 108.58V108.59Z" fill="#F7F7F7"/>
<path d="M508.89 108.59C508.89 107.47 508.89 106.57 508.89 105.45C508.89 105.32 508.88 104.95 508.87 104.84C508.85 104.6 508.77 104.62 508.73 104.62C508.38 104.62 508.24 104.62 507.75 104.64C507.61 104.64 507.53 104.58 507.44 104.68C507.41 104.71 507.36 104.78 507.34 104.93C507.3 105.19 507.31 105.87 507.31 106.22C507.31 107.85 507.29 109.43 507.31 111.05C507.31 111.17 507.31 111.28 507.32 111.38C507.34 111.63 507.46 111.7 507.5 111.7C507.88 111.68 508.07 111.73 508.42 111.73C508.5 111.73 508.54 111.73 508.66 111.73C508.72 111.73 508.83 111.8 508.87 111.56C508.9 111.36 508.89 110.35 508.89 110.07C508.89 109.57 508.89 109.08 508.89 108.58V108.59Z" fill="#F7F7F7"/>
<path d="M512.03 108.59C512.03 107.47 512.03 106.57 512.03 105.45C512.03 105.32 512.02 104.95 512.01 104.84C511.99 104.6 511.91 104.62 511.87 104.62C511.52 104.62 511.38 104.62 510.89 104.64C510.75 104.64 510.67 104.58 510.58 104.68C510.55 104.71 510.5 104.78 510.48 104.93C510.44 105.19 510.45 105.87 510.45 106.22C510.45 107.85 510.43 109.43 510.45 111.05C510.45 111.17 510.45 111.28 510.46 111.38C510.48 111.63 510.6 111.7 510.64 111.7C511.02 111.68 511.21 111.73 511.56 111.73C511.64 111.73 511.68 111.73 511.8 111.73C511.86 111.73 511.97 111.8 512.01 111.56C512.04 111.36 512.03 110.35 512.03 110.07C512.03 109.57 512.03 109.08 512.03 108.58V108.59Z" fill="#F7F7F7"/>
<path d="M515.11 108.59C515.11 107.47 515.11 106.57 515.11 105.45C515.11 105.32 515.1 104.95 515.09 104.84C515.07 104.6 514.99 104.62 514.95 104.62C514.6 104.62 514.46 104.62 513.97 104.64C513.83 104.64 513.75 104.58 513.66 104.68C513.63 104.71 513.58 104.78 513.56 104.93C513.52 105.19 513.53 105.87 513.53 106.22C513.53 107.85 513.51 109.43 513.53 111.05C513.53 111.17 513.53 111.28 513.54 111.38C513.56 111.63 513.68 111.7 513.72 111.7C514.1 111.68 514.29 111.73 514.64 111.73C514.72 111.73 514.76 111.73 514.88 111.73C514.94 111.73 515.05 111.8 515.09 111.56C515.12 111.36 515.11 110.35 515.11 110.07C515.11 109.57 515.11 109.08 515.11 108.58V108.59Z" fill="#F7F7F7"/>
<path d="M518.11 108.59C518.11 107.47 518.11 106.57 518.11 105.45C518.11 105.32 518.1 104.95 518.09 104.84C518.07 104.6 517.99 104.62 517.95 104.62C517.6 104.62 517.46 104.62 516.97 104.64C516.83 104.64 516.75 104.58 516.66 104.68C516.63 104.71 516.58 104.78 516.56 104.93C516.52 105.19 516.53 105.87 516.53 106.22C516.53 107.85 516.51 109.43 516.53 111.05C516.53 111.17 516.53 111.28 516.54 111.38C516.56 111.63 516.68 111.7 516.72 111.7C517.1 111.68 517.29 111.73 517.64 111.73C517.72 111.73 517.76 111.73 517.88 111.73C517.94 111.73 518.05 111.8 518.09 111.56C518.12 111.36 518.11 110.35 518.11 110.07C518.11 109.57 518.11 109.08 518.11 108.58V108.59Z" fill="#F7F7F7"/>
<path d="M521.181 108.59C521.181 107.47 521.181 106.57 521.181 105.45C521.181 105.32 521.171 104.95 521.161 104.84C521.141 104.6 521.061 104.62 521.021 104.62C520.671 104.62 520.531 104.62 520.041 104.64C519.901 104.64 519.821 104.58 519.731 104.68C519.701 104.71 519.651 104.78 519.631 104.93C519.591 105.19 519.601 105.87 519.601 106.22C519.601 107.85 519.581 109.43 519.601 111.05C519.601 111.17 519.601 111.28 519.611 111.38C519.631 111.63 519.751 111.7 519.791 111.7C520.171 111.68 520.361 111.73 520.711 111.73C520.791 111.73 520.831 111.73 520.951 111.73C521.011 111.73 521.121 111.8 521.161 111.56C521.191 111.36 521.181 110.35 521.181 110.07C521.181 109.57 521.181 109.08 521.181 108.58V108.59Z" fill="#F7F7F7"/>
<path d="M524.271 108.6C524.271 107.48 524.271 106.58 524.271 105.46C524.271 105.33 524.261 104.96 524.251 104.85C524.231 104.61 524.151 104.63 524.111 104.63C523.761 104.63 523.621 104.63 523.131 104.65C522.991 104.65 522.911 104.59 522.821 104.69C522.791 104.72 522.74 104.79 522.72 104.94C522.68 105.2 522.691 105.88 522.691 106.23C522.691 107.86 522.671 109.44 522.691 111.06C522.691 111.18 522.691 111.29 522.701 111.39C522.721 111.64 522.841 111.71 522.881 111.71C523.261 111.69 523.451 111.74 523.801 111.74C523.881 111.74 523.921 111.74 524.041 111.74C524.101 111.74 524.211 111.81 524.251 111.57C524.281 111.37 524.271 110.36 524.271 110.08C524.271 109.58 524.271 109.09 524.271 108.59V108.6Z" fill="#F7F7F7"/>
<path d="M527.351 108.6C527.351 107.48 527.351 106.58 527.351 105.46C527.351 105.33 527.341 104.96 527.331 104.85C527.311 104.61 527.231 104.63 527.191 104.63C526.841 104.63 526.701 104.63 526.211 104.65C526.071 104.65 525.991 104.59 525.901 104.69C525.871 104.72 525.821 104.79 525.801 104.94C525.761 105.2 525.771 105.88 525.771 106.23C525.771 107.86 525.751 109.44 525.771 111.06C525.771 111.18 525.771 111.29 525.781 111.39C525.801 111.64 525.921 111.71 525.961 111.71C526.341 111.69 526.531 111.74 526.881 111.74C526.961 111.74 527.001 111.74 527.121 111.74C527.181 111.74 527.291 111.81 527.331 111.57C527.361 111.37 527.351 110.36 527.351 110.08C527.351 109.58 527.351 109.09 527.351 108.59V108.6Z" fill="#F7F7F7"/>
<path d="M530.351 108.6C530.351 107.48 530.351 106.58 530.351 105.46C530.351 105.33 530.341 104.96 530.331 104.85C530.311 104.61 530.231 104.63 530.191 104.63C529.841 104.63 529.701 104.63 529.211 104.65C529.071 104.65 528.991 104.59 528.901 104.69C528.871 104.72 528.821 104.79 528.801 104.94C528.761 105.2 528.771 105.88 528.771 106.23C528.771 107.86 528.751 109.44 528.771 111.06C528.771 111.18 528.771 111.29 528.781 111.39C528.801 111.64 528.921 111.71 528.961 111.71C529.341 111.69 529.531 111.74 529.881 111.74C529.961 111.74 530.001 111.74 530.121 111.74C530.181 111.74 530.291 111.81 530.331 111.57C530.361 111.37 530.351 110.36 530.351 110.08C530.351 109.58 530.351 109.09 530.351 108.59V108.6Z" fill="#F7F7F7"/>
<path d="M536.78 50.1202C536.78 48.6402 537.24 45.5902 535.7 44.4802C534.45 43.5702 528.02 43.8302 526.26 43.8502C523.1 43.9002 519.95 43.8502 516.79 43.9202C509.67 44.0702 503.96 43.6602 496.85 43.9202C496 43.9502 493.68 44.2002 492.96 44.5002C491.46 45.1402 491.91 47.3402 491.92 48.5702C491.97 57.8102 491.94 65.3902 491.71 74.6302C491.62 78.4102 491.33 80.4002 491.99 83.0102C492.21 83.8902 492.6 85.1402 493.56 85.7502C495.19 86.7902 499.55 86.6202 501.75 86.5902C512.12 86.4602 522.15 87.1202 532.47 86.4702C533.2 86.4202 533.96 86.3702 534.59 86.1102C536.16 85.4502 536.63 82.4702 536.61 81.1902C536.48 71.1202 536.8 65.9102 536.8 56.4902C536.8 54.3502 536.8 53.1802 536.78 50.1102V50.1202Z" fill="#5E5E5E"/>
<path d="M534.371 50.4096C534.371 49.3796 534.781 47.2496 533.411 46.4796C532.291 45.8496 526.561 46.0196 524.991 46.0396C522.181 46.0696 519.361 46.0396 516.551 46.0896C510.201 46.1996 505.121 45.9096 498.771 46.0896C498.011 46.1096 495.951 46.2796 495.301 46.4996C493.961 46.9396 494.371 48.4796 494.371 49.3396C494.421 55.7796 494.391 61.0696 494.191 67.5096C494.111 70.1496 493.851 71.5296 494.441 73.3496C494.641 73.9696 494.991 74.8396 495.841 75.2596C496.811 75.7396 498.881 75.8496 500.731 75.8596C500.761 76.8396 500.701 77.2896 500.731 78.6996C500.731 79.2596 500.601 79.3496 500.991 79.6396C501.121 79.7396 501.361 79.8796 501.931 79.9496C502.541 80.0196 503.791 80.0396 504.961 80.0496C504.981 80.9596 504.961 81.4396 505.021 82.8196C505.041 83.2496 504.861 83.4696 505.131 83.7596C505.221 83.8596 505.381 83.9996 505.781 84.0696C506.451 84.1896 508.241 84.1696 509.151 84.1696C513.411 84.1596 517.531 84.2296 521.771 84.1596C522.071 84.1596 522.381 84.1496 522.641 84.1196C523.291 84.0496 523.481 83.7096 523.471 83.5696C523.421 82.4296 523.551 81.8496 523.551 80.7896C523.551 80.5496 523.551 80.4196 523.551 80.0696C524.091 80.0696 524.631 80.0696 525.181 80.0596C525.621 80.0596 526.071 80.0496 526.441 80.0196C527.381 79.9496 527.661 79.6096 527.651 79.4696C527.581 78.3396 527.761 77.7496 527.761 76.6896C527.761 76.4496 527.761 76.3196 527.751 75.9696C527.751 75.9496 527.751 75.9296 527.751 75.8996C528.681 75.8696 529.611 75.8396 530.551 75.7896C531.201 75.7596 531.881 75.7196 532.441 75.5396C533.841 75.0796 534.261 73.0096 534.241 72.1096C534.131 65.0896 534.411 61.4596 534.411 54.8896C534.411 53.3996 534.411 52.5796 534.391 50.4396L534.371 50.4096Z" fill="#303030"/>
<path d="M499.739 52.1101C499.739 50.9901 499.739 50.0901 499.739 48.9701C499.739 48.8401 499.729 48.4701 499.719 48.3601C499.699 48.1201 499.619 48.1401 499.579 48.1401C499.229 48.1401 499.089 48.1401 498.599 48.1601C498.459 48.1601 498.379 48.1001 498.289 48.2001C498.259 48.2301 498.209 48.3001 498.189 48.4501C498.149 48.7101 498.159 49.3901 498.159 49.7401C498.159 51.3701 498.139 52.9501 498.159 54.5701C498.159 54.6901 498.159 54.8001 498.169 54.9001C498.189 55.1501 498.309 55.2201 498.349 55.2201C498.729 55.2001 498.919 55.2501 499.269 55.2501C499.349 55.2501 499.389 55.2501 499.509 55.2501C499.569 55.2501 499.679 55.3201 499.719 55.0801C499.749 54.8801 499.739 53.8701 499.739 53.5901C499.739 53.0901 499.739 52.6001 499.739 52.1001V52.1101Z" fill="#F7F7F7"/>
<path d="M502.81 52.1101C502.81 50.9901 502.81 50.0901 502.81 48.9701C502.81 48.8401 502.8 48.4701 502.79 48.3601C502.77 48.1201 502.69 48.1401 502.65 48.1401C502.3 48.1401 502.16 48.1401 501.67 48.1601C501.53 48.1601 501.45 48.1001 501.36 48.2001C501.33 48.2301 501.28 48.3001 501.26 48.4501C501.22 48.7101 501.23 49.3901 501.23 49.7401C501.23 51.3701 501.21 52.9501 501.23 54.5701C501.23 54.6901 501.23 54.8001 501.24 54.9001C501.26 55.1501 501.38 55.2201 501.42 55.2201C501.8 55.2001 501.99 55.2501 502.34 55.2501C502.42 55.2501 502.46 55.2501 502.58 55.2501C502.64 55.2501 502.75 55.3201 502.79 55.0801C502.82 54.8801 502.81 53.8701 502.81 53.5901C502.81 53.0901 502.81 52.6001 502.81 52.1001V52.1101Z" fill="#F7F7F7"/>
<path d="M505.819 52.1101C505.819 50.9901 505.819 50.0901 505.819 48.9701C505.819 48.8401 505.809 48.4701 505.799 48.3601C505.779 48.1201 505.699 48.1401 505.659 48.1401C505.309 48.1401 505.169 48.1401 504.679 48.1601C504.539 48.1601 504.459 48.1001 504.369 48.2001C504.339 48.2301 504.289 48.3001 504.269 48.4501C504.229 48.7101 504.239 49.3901 504.239 49.7401C504.239 51.3701 504.219 52.9501 504.239 54.5701C504.239 54.6901 504.239 54.8001 504.249 54.9001C504.269 55.1501 504.389 55.2201 504.429 55.2201C504.809 55.2001 504.999 55.2501 505.349 55.2501C505.429 55.2501 505.469 55.2501 505.589 55.2501C505.649 55.2501 505.759 55.3201 505.799 55.0801C505.829 54.8801 505.819 53.8701 505.819 53.5901C505.819 53.0901 505.819 52.6001 505.819 52.1001V52.1101Z" fill="#F7F7F7"/>
<path d="M508.89 52.1101C508.89 50.9901 508.89 50.0901 508.89 48.9701C508.89 48.8401 508.88 48.4701 508.87 48.3601C508.85 48.1201 508.77 48.1401 508.73 48.1401C508.38 48.1401 508.24 48.1401 507.75 48.1601C507.61 48.1601 507.53 48.1001 507.44 48.2001C507.41 48.2301 507.36 48.3001 507.34 48.4501C507.3 48.7101 507.31 49.3901 507.31 49.7401C507.31 51.3701 507.29 52.9501 507.31 54.5701C507.31 54.6901 507.31 54.8001 507.32 54.9001C507.34 55.1501 507.46 55.2201 507.5 55.2201C507.88 55.2001 508.07 55.2501 508.42 55.2501C508.5 55.2501 508.54 55.2501 508.66 55.2501C508.72 55.2501 508.83 55.3201 508.87 55.0801C508.9 54.8801 508.89 53.8701 508.89 53.5901C508.89 53.0901 508.89 52.6001 508.89 52.1001V52.1101Z" fill="#F7F7F7"/>
<path d="M512.03 52.1101C512.03 50.9901 512.03 50.0901 512.03 48.9701C512.03 48.8401 512.02 48.4701 512.01 48.3601C511.99 48.1201 511.91 48.1401 511.87 48.1401C511.52 48.1401 511.38 48.1401 510.89 48.1601C510.75 48.1601 510.67 48.1001 510.58 48.2001C510.55 48.2301 510.5 48.3001 510.48 48.4501C510.44 48.7101 510.45 49.3901 510.45 49.7401C510.45 51.3701 510.43 52.9501 510.45 54.5701C510.45 54.6901 510.45 54.8001 510.46 54.9001C510.48 55.1501 510.6 55.2201 510.64 55.2201C511.02 55.2001 511.21 55.2501 511.56 55.2501C511.64 55.2501 511.68 55.2501 511.8 55.2501C511.86 55.2501 511.97 55.3201 512.01 55.0801C512.04 54.8801 512.03 53.8701 512.03 53.5901C512.03 53.0901 512.03 52.6001 512.03 52.1001V52.1101Z" fill="#F7F7F7"/>
<path d="M515.11 52.1101C515.11 50.9901 515.11 50.0901 515.11 48.9701C515.11 48.8401 515.1 48.4701 515.09 48.3601C515.07 48.1201 514.99 48.1401 514.95 48.1401C514.6 48.1401 514.46 48.1401 513.97 48.1601C513.83 48.1601 513.75 48.1001 513.66 48.2001C513.63 48.2301 513.58 48.3001 513.56 48.4501C513.52 48.7101 513.53 49.3901 513.53 49.7401C513.53 51.3701 513.51 52.9501 513.53 54.5701C513.53 54.6901 513.53 54.8001 513.54 54.9001C513.56 55.1501 513.68 55.2201 513.72 55.2201C514.1 55.2001 514.29 55.2501 514.64 55.2501C514.72 55.2501 514.76 55.2501 514.88 55.2501C514.94 55.2501 515.05 55.3201 515.09 55.0801C515.12 54.8801 515.11 53.8701 515.11 53.5901C515.11 53.0901 515.11 52.6001 515.11 52.1001V52.1101Z" fill="#F7F7F7"/>
<path d="M518.11 52.1101C518.11 50.9901 518.11 50.0901 518.11 48.9701C518.11 48.8401 518.1 48.4701 518.09 48.3601C518.07 48.1201 517.99 48.1401 517.95 48.1401C517.6 48.1401 517.46 48.1401 516.97 48.1601C516.83 48.1601 516.75 48.1001 516.66 48.2001C516.63 48.2301 516.58 48.3001 516.56 48.4501C516.52 48.7101 516.53 49.3901 516.53 49.7401C516.53 51.3701 516.51 52.9501 516.53 54.5701C516.53 54.6901 516.53 54.8001 516.54 54.9001C516.56 55.1501 516.68 55.2201 516.72 55.2201C517.1 55.2001 517.29 55.2501 517.64 55.2501C517.72 55.2501 517.76 55.2501 517.88 55.2501C517.94 55.2501 518.05 55.3201 518.09 55.0801C518.12 54.8801 518.11 53.8701 518.11 53.5901C518.11 53.0901 518.11 52.6001 518.11 52.1001V52.1101Z" fill="#F7F7F7"/>
<path d="M521.181 52.1101C521.181 50.9901 521.181 50.0901 521.181 48.9701C521.181 48.8401 521.171 48.4701 521.161 48.3601C521.141 48.1201 521.061 48.1401 521.021 48.1401C520.671 48.1401 520.531 48.1401 520.041 48.1601C519.901 48.1601 519.821 48.1001 519.731 48.2001C519.701 48.2301 519.651 48.3001 519.631 48.4501C519.591 48.7101 519.601 49.3901 519.601 49.7401C519.601 51.3701 519.581 52.9501 519.601 54.5701C519.601 54.6901 519.601 54.8001 519.611 54.9001C519.631 55.1501 519.751 55.2201 519.791 55.2201C520.171 55.2001 520.361 55.2501 520.711 55.2501C520.791 55.2501 520.831 55.2501 520.951 55.2501C521.011 55.2501 521.121 55.3201 521.161 55.0801C521.191 54.8801 521.181 53.8701 521.181 53.5901C521.181 53.0901 521.181 52.6001 521.181 52.1001V52.1101Z" fill="#F7F7F7"/>
<path d="M524.271 52.1198C524.271 50.9998 524.271 50.0998 524.271 48.9798C524.271 48.8498 524.261 48.4798 524.251 48.3698C524.231 48.1298 524.151 48.1498 524.111 48.1498C523.761 48.1498 523.621 48.1498 523.131 48.1698C522.991 48.1698 522.911 48.1098 522.821 48.2098C522.791 48.2398 522.74 48.3098 522.72 48.4598C522.68 48.7198 522.691 49.3998 522.691 49.7498C522.691 51.3798 522.671 52.9598 522.691 54.5798C522.691 54.6998 522.691 54.8098 522.701 54.9098C522.721 55.1598 522.841 55.2298 522.881 55.2298C523.261 55.2098 523.451 55.2598 523.801 55.2598C523.881 55.2598 523.921 55.2598 524.041 55.2598C524.101 55.2598 524.211 55.3298 524.251 55.0898C524.281 54.8898 524.271 53.8798 524.271 53.5998C524.271 53.0998 524.271 52.6098 524.271 52.1098V52.1198Z" fill="#F7F7F7"/>
<path d="M527.351 52.1198C527.351 50.9998 527.351 50.0998 527.351 48.9798C527.351 48.8498 527.341 48.4798 527.331 48.3698C527.311 48.1298 527.231 48.1498 527.191 48.1498C526.841 48.1498 526.701 48.1498 526.211 48.1698C526.071 48.1698 525.991 48.1098 525.901 48.2098C525.871 48.2398 525.821 48.3098 525.801 48.4598C525.761 48.7198 525.771 49.3998 525.771 49.7498C525.771 51.3798 525.751 52.9598 525.771 54.5798C525.771 54.6998 525.771 54.8098 525.781 54.9098C525.801 55.1598 525.921 55.2298 525.961 55.2298C526.341 55.2098 526.531 55.2598 526.881 55.2598C526.961 55.2598 527.001 55.2598 527.121 55.2598C527.181 55.2598 527.291 55.3298 527.331 55.0898C527.361 54.8898 527.351 53.8798 527.351 53.5998C527.351 53.0998 527.351 52.6098 527.351 52.1098V52.1198Z" fill="#F7F7F7"/>
<path d="M530.351 52.1198C530.351 50.9998 530.351 50.0998 530.351 48.9798C530.351 48.8498 530.341 48.4798 530.331 48.3698C530.311 48.1298 530.231 48.1498 530.191 48.1498C529.841 48.1498 529.701 48.1498 529.211 48.1698C529.071 48.1698 528.991 48.1098 528.901 48.2098C528.871 48.2398 528.821 48.3098 528.801 48.4598C528.761 48.7198 528.771 49.3998 528.771 49.7498C528.771 51.3798 528.751 52.9598 528.771 54.5798C528.771 54.6998 528.771 54.8098 528.781 54.9098C528.801 55.1598 528.921 55.2298 528.961 55.2298C529.341 55.2098 529.531 55.2598 529.881 55.2598C529.961 55.2598 530.001 55.2598 530.121 55.2598C530.181 55.2598 530.291 55.3298 530.331 55.0898C530.361 54.8898 530.351 53.8798 530.351 53.5998C530.351 53.0998 530.351 52.6098 530.351 52.1098V52.1198Z" fill="#F7F7F7"/>
<path d="M536.78 163.08C536.78 161.6 537.24 158.55 535.7 157.44C534.45 156.53 528.02 156.79 526.26 156.81C523.1 156.86 519.95 156.81 516.79 156.88C509.67 157.03 503.96 156.62 496.85 156.88C496 156.91 493.68 157.16 492.96 157.46C491.46 158.1 491.91 160.3 491.92 161.53C491.97 170.77 491.94 178.35 491.71 187.59C491.62 191.37 491.33 193.36 491.99 195.97C492.21 196.85 492.6 198.1 493.56 198.71C495.19 199.75 499.55 199.58 501.75 199.55C512.12 199.42 522.15 200.08 532.47 199.43C533.2 199.38 533.96 199.33 534.59 199.07C536.16 198.41 536.63 195.43 536.61 194.15C536.48 184.08 536.8 178.87 536.8 169.45C536.8 167.31 536.8 166.14 536.78 163.07V163.08Z" fill="#5E5E5E"/>
<path d="M534.371 163.38C534.371 162.35 534.781 160.22 533.411 159.45C532.291 158.82 526.561 158.99 524.991 159.01C522.181 159.04 519.361 159.01 516.551 159.06C510.201 159.16 505.121 158.88 498.771 159.06C498.011 159.08 495.951 159.25 495.301 159.47C493.961 159.91 494.371 161.45 494.371 162.31C494.421 168.75 494.391 174.04 494.191 180.48C494.111 183.12 493.851 184.5 494.441 186.32C494.641 186.94 494.991 187.81 495.841 188.23C496.811 188.71 498.881 188.82 500.731 188.83C500.761 189.81 500.701 190.26 500.731 191.67C500.731 192.23 500.601 192.32 500.991 192.61C501.121 192.71 501.361 192.85 501.931 192.92C502.541 192.99 503.791 193.01 504.961 193.02C504.981 193.93 504.961 194.41 505.021 195.79C505.041 196.22 504.861 196.44 505.131 196.74C505.221 196.84 505.381 196.98 505.781 197.05C506.451 197.17 508.241 197.15 509.151 197.15C513.411 197.14 517.531 197.21 521.771 197.14C522.071 197.14 522.381 197.13 522.641 197.1C523.291 197.03 523.481 196.69 523.471 196.55C523.421 195.41 523.551 194.83 523.551 193.77C523.551 193.53 523.551 193.4 523.551 193.05C524.091 193.05 524.631 193.05 525.181 193.04C525.621 193.04 526.071 193.03 526.441 193C527.381 192.93 527.661 192.59 527.651 192.45C527.581 191.31 527.761 190.73 527.761 189.67C527.761 189.43 527.761 189.3 527.751 188.95C527.751 188.93 527.751 188.91 527.751 188.88C528.681 188.85 529.611 188.82 530.551 188.77C531.201 188.74 531.881 188.7 532.441 188.52C533.841 188.06 534.261 185.99 534.241 185.09C534.131 178.07 534.411 174.44 534.411 167.87C534.411 166.38 534.411 165.56 534.391 163.42L534.371 163.38Z" fill="#303030"/>
<path d="M499.739 165.07C499.739 163.95 499.739 163.05 499.739 161.93C499.739 161.8 499.729 161.43 499.719 161.32C499.699 161.08 499.619 161.1 499.579 161.1C499.229 161.1 499.089 161.1 498.599 161.12C498.459 161.12 498.379 161.06 498.289 161.16C498.259 161.19 498.209 161.26 498.189 161.41C498.149 161.67 498.159 162.35 498.159 162.7C498.159 164.33 498.139 165.91 498.159 167.53C498.159 167.65 498.159 167.76 498.169 167.86C498.189 168.11 498.309 168.18 498.349 168.18C498.729 168.16 498.919 168.21 499.269 168.21C499.349 168.21 499.389 168.21 499.509 168.21C499.569 168.21 499.679 168.28 499.719 168.04C499.749 167.84 499.739 166.83 499.739 166.55C499.739 166.05 499.739 165.56 499.739 165.06V165.07Z" fill="#F7F7F7"/>
<path d="M502.81 165.07C502.81 163.95 502.81 163.05 502.81 161.93C502.81 161.8 502.8 161.43 502.79 161.32C502.77 161.08 502.69 161.1 502.65 161.1C502.3 161.1 502.16 161.1 501.67 161.12C501.53 161.12 501.45 161.06 501.36 161.16C501.33 161.19 501.28 161.26 501.26 161.41C501.22 161.67 501.23 162.35 501.23 162.7C501.23 164.33 501.21 165.91 501.23 167.53C501.23 167.65 501.23 167.76 501.24 167.86C501.26 168.11 501.38 168.18 501.42 168.18C501.8 168.16 501.99 168.21 502.34 168.21C502.42 168.21 502.46 168.21 502.58 168.21C502.64 168.21 502.75 168.28 502.79 168.04C502.82 167.84 502.81 166.83 502.81 166.55C502.81 166.05 502.81 165.56 502.81 165.06V165.07Z" fill="#F7F7F7"/>
<path d="M505.819 165.07C505.819 163.95 505.819 163.05 505.819 161.93C505.819 161.8 505.809 161.43 505.799 161.32C505.779 161.08 505.699 161.1 505.659 161.1C505.309 161.1 505.169 161.1 504.679 161.12C504.539 161.12 504.459 161.06 504.369 161.16C504.339 161.19 504.289 161.26 504.269 161.41C504.229 161.67 504.239 162.35 504.239 162.7C504.239 164.33 504.219 165.91 504.239 167.53C504.239 167.65 504.239 167.76 504.249 167.86C504.269 168.11 504.389 168.18 504.429 168.18C504.809 168.16 504.999 168.21 505.349 168.21C505.429 168.21 505.469 168.21 505.589 168.21C505.649 168.21 505.759 168.28 505.799 168.04C505.829 167.84 505.819 166.83 505.819 166.55C505.819 166.05 505.819 165.56 505.819 165.06V165.07Z" fill="#F7F7F7"/>
<path d="M508.89 165.07C508.89 163.95 508.89 163.05 508.89 161.93C508.89 161.8 508.88 161.43 508.87 161.32C508.85 161.08 508.77 161.1 508.73 161.1C508.38 161.1 508.24 161.1 507.75 161.12C507.61 161.12 507.53 161.06 507.44 161.16C507.41 161.19 507.36 161.26 507.34 161.41C507.3 161.67 507.31 162.35 507.31 162.7C507.31 164.33 507.29 165.91 507.31 167.53C507.31 167.65 507.31 167.76 507.32 167.86C507.34 168.11 507.46 168.18 507.5 168.18C507.88 168.16 508.07 168.21 508.42 168.21C508.5 168.21 508.54 168.21 508.66 168.21C508.72 168.21 508.83 168.28 508.87 168.04C508.9 167.84 508.89 166.83 508.89 166.55C508.89 166.05 508.89 165.56 508.89 165.06V165.07Z" fill="#F7F7F7"/>
<path d="M512.03 165.07C512.03 163.95 512.03 163.05 512.03 161.93C512.03 161.8 512.02 161.43 512.01 161.32C511.99 161.08 511.91 161.1 511.87 161.1C511.52 161.1 511.38 161.1 510.89 161.12C510.75 161.12 510.67 161.06 510.58 161.16C510.55 161.19 510.5 161.26 510.48 161.41C510.44 161.67 510.45 162.35 510.45 162.7C510.45 164.33 510.43 165.91 510.45 167.53C510.45 167.65 510.45 167.76 510.46 167.86C510.48 168.11 510.6 168.18 510.64 168.18C511.02 168.16 511.21 168.21 511.56 168.21C511.64 168.21 511.68 168.21 511.8 168.21C511.86 168.21 511.97 168.28 512.01 168.04C512.04 167.84 512.03 166.83 512.03 166.55C512.03 166.05 512.03 165.56 512.03 165.06V165.07Z" fill="#F7F7F7"/>
<path d="M515.11 165.07C515.11 163.95 515.11 163.05 515.11 161.93C515.11 161.8 515.1 161.43 515.09 161.32C515.07 161.08 514.99 161.1 514.95 161.1C514.6 161.1 514.46 161.1 513.97 161.12C513.83 161.12 513.75 161.06 513.66 161.16C513.63 161.19 513.58 161.26 513.56 161.41C513.52 161.67 513.53 162.35 513.53 162.7C513.53 164.33 513.51 165.91 513.53 167.53C513.53 167.65 513.53 167.76 513.54 167.86C513.56 168.11 513.68 168.18 513.72 168.18C514.1 168.16 514.29 168.21 514.64 168.21C514.72 168.21 514.76 168.21 514.88 168.21C514.94 168.21 515.05 168.28 515.09 168.04C515.12 167.84 515.11 166.83 515.11 166.55C515.11 166.05 515.11 165.56 515.11 165.06V165.07Z" fill="#F7F7F7"/>
<path d="M518.11 165.07C518.11 163.95 518.11 163.05 518.11 161.93C518.11 161.8 518.1 161.43 518.09 161.32C518.07 161.08 517.99 161.1 517.95 161.1C517.6 161.1 517.46 161.1 516.97 161.12C516.83 161.12 516.75 161.06 516.66 161.16C516.63 161.19 516.58 161.26 516.56 161.41C516.52 161.67 516.53 162.35 516.53 162.7C516.53 164.33 516.51 165.91 516.53 167.53C516.53 167.65 516.53 167.76 516.54 167.86C516.56 168.11 516.68 168.18 516.72 168.18C517.1 168.16 517.29 168.21 517.64 168.21C517.72 168.21 517.76 168.21 517.88 168.21C517.94 168.21 518.05 168.28 518.09 168.04C518.12 167.84 518.11 166.83 518.11 166.55C518.11 166.05 518.11 165.56 518.11 165.06V165.07Z" fill="#F7F7F7"/>
<path d="M521.181 165.07C521.181 163.95 521.181 163.05 521.181 161.93C521.181 161.8 521.171 161.43 521.161 161.32C521.141 161.08 521.061 161.1 521.021 161.1C520.671 161.1 520.531 161.1 520.041 161.12C519.901 161.12 519.821 161.06 519.731 161.16C519.701 161.19 519.651 161.26 519.631 161.41C519.591 161.67 519.601 162.35 519.601 162.7C519.601 164.33 519.581 165.91 519.601 167.53C519.601 167.65 519.601 167.76 519.611 167.86C519.631 168.11 519.751 168.18 519.791 168.18C520.171 168.16 520.361 168.21 520.711 168.21C520.791 168.21 520.831 168.21 520.951 168.21C521.011 168.21 521.121 168.28 521.161 168.04C521.191 167.84 521.181 166.83 521.181 166.55C521.181 166.05 521.181 165.56 521.181 165.06V165.07Z" fill="#F7F7F7"/>
<path d="M524.271 165.09C524.271 163.97 524.271 163.07 524.271 161.95C524.271 161.82 524.261 161.45 524.251 161.34C524.231 161.1 524.151 161.12 524.111 161.12C523.761 161.12 523.621 161.12 523.131 161.14C522.991 161.14 522.911 161.08 522.821 161.18C522.791 161.21 522.74 161.28 522.72 161.43C522.68 161.69 522.691 162.37 522.691 162.72C522.691 164.35 522.671 165.93 522.691 167.55C522.691 167.67 522.691 167.78 522.701 167.88C522.721 168.13 522.841 168.2 522.881 168.2C523.261 168.18 523.451 168.23 523.801 168.23C523.881 168.23 523.921 168.23 524.041 168.23C524.101 168.23 524.211 168.3 524.251 168.06C524.281 167.86 524.271 166.85 524.271 166.57C524.271 166.07 524.271 165.58 524.271 165.08V165.09Z" fill="#F7F7F7"/>
<path d="M527.351 165.09C527.351 163.97 527.351 163.07 527.351 161.95C527.351 161.82 527.341 161.45 527.331 161.34C527.311 161.1 527.231 161.12 527.191 161.12C526.841 161.12 526.701 161.12 526.211 161.14C526.071 161.14 525.991 161.08 525.901 161.18C525.871 161.21 525.821 161.28 525.801 161.43C525.761 161.69 525.771 162.37 525.771 162.72C525.771 164.35 525.751 165.93 525.771 167.55C525.771 167.67 525.771 167.78 525.781 167.88C525.801 168.13 525.921 168.2 525.961 168.2C526.341 168.18 526.531 168.23 526.881 168.23C526.961 168.23 527.001 168.23 527.121 168.23C527.181 168.23 527.291 168.3 527.331 168.06C527.361 167.86 527.351 166.85 527.351 166.57C527.351 166.07 527.351 165.58 527.351 165.08V165.09Z" fill="#F7F7F7"/>
<path d="M530.351 165.09C530.351 163.97 530.351 163.07 530.351 161.95C530.351 161.82 530.341 161.45 530.331 161.34C530.311 161.1 530.231 161.12 530.191 161.12C529.841 161.12 529.701 161.12 529.211 161.14C529.071 161.14 528.991 161.08 528.901 161.18C528.871 161.21 528.821 161.28 528.801 161.43C528.761 161.69 528.771 162.37 528.771 162.72C528.771 164.35 528.751 165.93 528.771 167.55C528.771 167.67 528.771 167.78 528.781 167.88C528.801 168.13 528.921 168.2 528.961 168.2C529.341 168.18 529.531 168.23 529.881 168.23C529.961 168.23 530.001 168.23 530.121 168.23C530.181 168.23 530.291 168.3 530.331 168.06C530.361 167.86 530.351 166.85 530.351 166.57C530.351 166.07 530.351 165.58 530.351 165.08V165.09Z" fill="#F7F7F7"/>
<path d="M536.78 219.38C536.78 217.9 537.24 214.85 535.7 213.74C534.45 212.83 528.02 213.09 526.26 213.11C523.1 213.16 519.95 213.11 516.79 213.18C509.67 213.33 503.96 212.92 496.85 213.18C496 213.21 493.68 213.46 492.96 213.76C491.46 214.4 491.91 216.6 491.92 217.83C491.97 227.07 491.94 234.65 491.71 243.89C491.62 247.67 491.33 249.66 491.99 252.27C492.21 253.15 492.6 254.4 493.56 255.01C495.19 256.05 499.55 255.88 501.75 255.85C512.12 255.72 522.15 256.38 532.47 255.73C533.2 255.68 533.96 255.63 534.59 255.37C536.16 254.71 536.63 251.73 536.61 250.45C536.48 240.38 536.8 235.17 536.8 225.75C536.8 223.61 536.8 222.44 536.78 219.37V219.38Z" fill="#5E5E5E"/>
<path d="M534.371 219.68C534.371 218.65 534.781 216.52 533.411 215.75C532.291 215.12 526.561 215.3 524.991 215.31C522.181 215.34 519.361 215.31 516.551 215.36C510.201 215.46 505.121 215.18 498.771 215.36C498.011 215.38 495.951 215.55 495.301 215.77C493.961 216.21 494.371 217.75 494.371 218.61C494.421 225.05 494.391 230.34 494.191 236.78C494.111 239.42 493.851 240.8 494.441 242.62C494.641 243.24 494.991 244.11 495.841 244.53C496.811 245.01 498.881 245.12 500.731 245.13C500.761 246.11 500.701 246.56 500.731 247.97C500.731 248.53 500.601 248.62 500.991 248.91C501.121 249.01 501.361 249.15 501.931 249.22C502.541 249.29 503.791 249.31 504.961 249.32C504.981 250.23 504.961 250.71 505.021 252.09C505.041 252.52 504.861 252.74 505.131 253.04C505.221 253.14 505.381 253.28 505.781 253.35C506.451 253.47 508.241 253.45 509.151 253.45C513.411 253.44 517.531 253.51 521.771 253.44C522.071 253.44 522.381 253.43 522.641 253.4C523.291 253.33 523.481 252.99 523.471 252.85C523.421 251.71 523.551 251.13 523.551 250.07C523.551 249.83 523.551 249.7 523.551 249.35C524.091 249.35 524.631 249.35 525.181 249.34C525.621 249.34 526.071 249.33 526.441 249.3C527.381 249.23 527.661 248.89 527.651 248.75C527.581 247.61 527.761 247.03 527.761 245.97C527.761 245.73 527.761 245.6 527.751 245.25C527.751 245.23 527.751 245.21 527.751 245.18C528.681 245.15 529.611 245.12 530.551 245.07C531.201 245.04 531.881 245 532.441 244.82C533.841 244.36 534.261 242.29 534.241 241.39C534.131 234.37 534.411 230.74 534.411 224.17C534.411 222.68 534.411 221.86 534.391 219.72L534.371 219.68Z" fill="#303030"/>
<path d="M499.739 221.37C499.739 220.25 499.739 219.35 499.739 218.23C499.739 218.1 499.729 217.73 499.719 217.62C499.699 217.38 499.619 217.4 499.579 217.4C499.229 217.4 499.089 217.4 498.599 217.42C498.459 217.42 498.379 217.36 498.289 217.46C498.259 217.49 498.209 217.56 498.189 217.71C498.149 217.97 498.159 218.65 498.159 219C498.159 220.63 498.139 222.21 498.159 223.83C498.159 223.95 498.159 224.06 498.169 224.16C498.189 224.41 498.309 224.48 498.349 224.48C498.729 224.46 498.919 224.51 499.269 224.51C499.349 224.51 499.389 224.51 499.509 224.51C499.569 224.51 499.679 224.58 499.719 224.34C499.749 224.14 499.739 223.13 499.739 222.85C499.739 222.35 499.739 221.86 499.739 221.36V221.37Z" fill="#F7F7F7"/>
<path d="M502.81 221.37C502.81 220.25 502.81 219.35 502.81 218.23C502.81 218.1 502.8 217.73 502.79 217.62C502.77 217.38 502.69 217.4 502.65 217.4C502.3 217.4 502.16 217.4 501.67 217.42C501.53 217.42 501.45 217.36 501.36 217.46C501.33 217.49 501.28 217.56 501.26 217.71C501.22 217.97 501.23 218.65 501.23 219C501.23 220.63 501.21 222.21 501.23 223.83C501.23 223.95 501.23 224.06 501.24 224.16C501.26 224.41 501.38 224.48 501.42 224.48C501.8 224.46 501.99 224.51 502.34 224.51C502.42 224.51 502.46 224.51 502.58 224.51C502.64 224.51 502.75 224.58 502.79 224.34C502.82 224.14 502.81 223.13 502.81 222.85C502.81 222.35 502.81 221.86 502.81 221.36V221.37Z" fill="#F7F7F7"/>
<path d="M505.819 221.37C505.819 220.25 505.819 219.35 505.819 218.23C505.819 218.1 505.809 217.73 505.799 217.62C505.779 217.38 505.699 217.4 505.659 217.4C505.309 217.4 505.169 217.4 504.679 217.42C504.539 217.42 504.459 217.36 504.369 217.46C504.339 217.49 504.289 217.56 504.269 217.71C504.229 217.97 504.239 218.65 504.239 219C504.239 220.63 504.219 222.21 504.239 223.83C504.239 223.95 504.239 224.06 504.249 224.16C504.269 224.41 504.389 224.48 504.429 224.48C504.809 224.46 504.999 224.51 505.349 224.51C505.429 224.51 505.469 224.51 505.589 224.51C505.649 224.51 505.759 224.58 505.799 224.34C505.829 224.14 505.819 223.13 505.819 222.85C505.819 222.35 505.819 221.86 505.819 221.36V221.37Z" fill="#F7F7F7"/>
<path d="M508.89 221.37C508.89 220.25 508.89 219.35 508.89 218.23C508.89 218.1 508.88 217.73 508.87 217.62C508.85 217.38 508.77 217.4 508.73 217.4C508.38 217.4 508.24 217.4 507.75 217.42C507.61 217.42 507.53 217.36 507.44 217.46C507.41 217.49 507.36 217.56 507.34 217.71C507.3 217.97 507.31 218.65 507.31 219C507.31 220.63 507.29 222.21 507.31 223.83C507.31 223.95 507.31 224.06 507.32 224.16C507.34 224.41 507.46 224.48 507.5 224.48C507.88 224.46 508.07 224.51 508.42 224.51C508.5 224.51 508.54 224.51 508.66 224.51C508.72 224.51 508.83 224.58 508.87 224.34C508.9 224.14 508.89 223.13 508.89 222.85C508.89 222.35 508.89 221.86 508.89 221.36V221.37Z" fill="#F7F7F7"/>
<path d="M512.03 221.37C512.03 220.25 512.03 219.35 512.03 218.23C512.03 218.1 512.02 217.73 512.01 217.62C511.99 217.38 511.91 217.4 511.87 217.4C511.52 217.4 511.38 217.4 510.89 217.42C510.75 217.42 510.67 217.36 510.58 217.46C510.55 217.49 510.5 217.56 510.48 217.71C510.44 217.97 510.45 218.65 510.45 219C510.45 220.63 510.43 222.21 510.45 223.83C510.45 223.95 510.45 224.06 510.46 224.16C510.48 224.41 510.6 224.48 510.64 224.48C511.02 224.46 511.21 224.51 511.56 224.51C511.64 224.51 511.68 224.51 511.8 224.51C511.86 224.51 511.97 224.58 512.01 224.34C512.04 224.14 512.03 223.13 512.03 222.85C512.03 222.35 512.03 221.86 512.03 221.36V221.37Z" fill="#F7F7F7"/>
<path d="M515.11 221.37C515.11 220.25 515.11 219.35 515.11 218.23C515.11 218.1 515.1 217.73 515.09 217.62C515.07 217.38 514.99 217.4 514.95 217.4C514.6 217.4 514.46 217.4 513.97 217.42C513.83 217.42 513.75 217.36 513.66 217.46C513.63 217.49 513.58 217.56 513.56 217.71C513.52 217.97 513.53 218.65 513.53 219C513.53 220.63 513.51 222.21 513.53 223.83C513.53 223.95 513.53 224.06 513.54 224.16C513.56 224.41 513.68 224.48 513.72 224.48C514.1 224.46 514.29 224.51 514.64 224.51C514.72 224.51 514.76 224.51 514.88 224.51C514.94 224.51 515.05 224.58 515.09 224.34C515.12 224.14 515.11 223.13 515.11 222.85C515.11 222.35 515.11 221.86 515.11 221.36V221.37Z" fill="#F7F7F7"/>
<path d="M518.11 221.37C518.11 220.25 518.11 219.35 518.11 218.23C518.11 218.1 518.1 217.73 518.09 217.62C518.07 217.38 517.99 217.4 517.95 217.4C517.6 217.4 517.46 217.4 516.97 217.42C516.83 217.42 516.75 217.36 516.66 217.46C516.63 217.49 516.58 217.56 516.56 217.71C516.52 217.97 516.53 218.65 516.53 219C516.53 220.63 516.51 222.21 516.53 223.83C516.53 223.95 516.53 224.06 516.54 224.16C516.56 224.41 516.68 224.48 516.72 224.48C517.1 224.46 517.29 224.51 517.64 224.51C517.72 224.51 517.76 224.51 517.88 224.51C517.94 224.51 518.05 224.58 518.09 224.34C518.12 224.14 518.11 223.13 518.11 222.85C518.11 222.35 518.11 221.86 518.11 221.36V221.37Z" fill="#F7F7F7"/>
<path d="M521.181 221.37C521.181 220.25 521.181 219.35 521.181 218.23C521.181 218.1 521.171 217.73 521.161 217.62C521.141 217.38 521.061 217.4 521.021 217.4C520.671 217.4 520.531 217.4 520.041 217.42C519.901 217.42 519.821 217.36 519.731 217.46C519.701 217.49 519.651 217.56 519.631 217.71C519.591 217.97 519.601 218.65 519.601 219C519.601 220.63 519.581 222.21 519.601 223.83C519.601 223.95 519.601 224.06 519.611 224.16C519.631 224.41 519.751 224.48 519.791 224.48C520.171 224.46 520.361 224.51 520.711 224.51C520.791 224.51 520.831 224.51 520.951 224.51C521.011 224.51 521.121 224.58 521.161 224.34C521.191 224.14 521.181 223.13 521.181 222.85C521.181 222.35 521.181 221.86 521.181 221.36V221.37Z" fill="#F7F7F7"/>
<path d="M524.271 221.38C524.271 220.26 524.271 219.36 524.271 218.24C524.271 218.11 524.261 217.74 524.251 217.63C524.231 217.39 524.151 217.41 524.111 217.41C523.761 217.41 523.621 217.41 523.131 217.43C522.991 217.43 522.911 217.37 522.821 217.47C522.791 217.5 522.74 217.57 522.72 217.72C522.68 217.98 522.691 218.66 522.691 219.01C522.691 220.64 522.671 222.22 522.691 223.84C522.691 223.96 522.691 224.07 522.701 224.17C522.721 224.42 522.841 224.49 522.881 224.49C523.261 224.47 523.451 224.52 523.801 224.52C523.881 224.52 523.921 224.52 524.041 224.52C524.101 224.52 524.211 224.59 524.251 224.35C524.281 224.15 524.271 223.14 524.271 222.86C524.271 222.36 524.271 221.87 524.271 221.37V221.38Z" fill="#F7F7F7"/>
<path d="M527.351 221.38C527.351 220.26 527.351 219.36 527.351 218.24C527.351 218.11 527.341 217.74 527.331 217.63C527.311 217.39 527.231 217.41 527.191 217.41C526.841 217.41 526.701 217.41 526.211 217.43C526.071 217.43 525.991 217.37 525.901 217.47C525.871 217.5 525.821 217.57 525.801 217.72C525.761 217.98 525.771 218.66 525.771 219.01C525.771 220.64 525.751 222.22 525.771 223.84C525.771 223.96 525.771 224.07 525.781 224.17C525.801 224.42 525.921 224.49 525.961 224.49C526.341 224.47 526.531 224.52 526.881 224.52C526.961 224.52 527.001 224.52 527.121 224.52C527.181 224.52 527.291 224.59 527.331 224.35C527.361 224.15 527.351 223.14 527.351 222.86C527.351 222.36 527.351 221.87 527.351 221.37V221.38Z" fill="#F7F7F7"/>
<path d="M530.351 221.38C530.351 220.26 530.351 219.36 530.351 218.24C530.351 218.11 530.341 217.74 530.331 217.63C530.311 217.39 530.231 217.41 530.191 217.41C529.841 217.41 529.701 217.41 529.211 217.43C529.071 217.43 528.991 217.37 528.901 217.47C528.871 217.5 528.821 217.57 528.801 217.72C528.761 217.98 528.771 218.66 528.771 219.01C528.771 220.64 528.751 222.22 528.771 223.84C528.771 223.96 528.771 224.07 528.781 224.17C528.801 224.42 528.921 224.49 528.961 224.49C529.341 224.47 529.531 224.52 529.881 224.52C529.961 224.52 530.001 224.52 530.121 224.52C530.181 224.52 530.291 224.59 530.331 224.35C530.361 224.15 530.351 223.14 530.351 222.86C530.351 222.36 530.351 221.87 530.351 221.37V221.38Z" fill="#F7F7F7"/>
<path d="M536.78 273.92C536.78 272.44 537.24 269.39 535.7 268.28C534.45 267.37 528.02 267.63 526.26 267.65C523.1 267.7 519.95 267.65 516.79 267.72C509.67 267.87 503.96 267.46 496.85 267.72C496 267.75 493.68 268 492.96 268.3C491.46 268.94 491.91 271.14 491.92 272.37C491.97 281.61 491.94 289.19 491.71 298.43C491.62 302.21 491.33 304.2 491.99 306.81C492.21 307.69 492.6 308.94 493.56 309.55C495.19 310.59 499.55 310.42 501.75 310.39C512.12 310.26 522.15 310.92 532.47 310.27C533.2 310.22 533.96 310.17 534.59 309.91C536.16 309.25 536.63 306.27 536.61 304.99C536.48 294.92 536.8 289.71 536.8 280.29C536.8 278.15 536.8 276.98 536.78 273.91V273.92Z" fill="#5E5E5E"/>
<path d="M534.371 274.22C534.371 273.19 534.781 271.06 533.411 270.29C532.291 269.66 526.561 269.83 524.991 269.85C522.181 269.88 519.361 269.85 516.551 269.9C510.201 270 505.121 269.72 498.771 269.9C498.011 269.92 495.951 270.09 495.301 270.31C493.961 270.75 494.371 272.29 494.371 273.15C494.421 279.59 494.391 284.88 494.191 291.32C494.111 293.96 493.851 295.34 494.441 297.16C494.641 297.78 494.991 298.65 495.841 299.07C496.811 299.55 498.881 299.66 500.731 299.67C500.761 300.65 500.701 301.1 500.731 302.51C500.731 303.07 500.601 303.16 500.991 303.45C501.121 303.55 501.361 303.69 501.931 303.76C502.541 303.83 503.791 303.85 504.961 303.86C504.981 304.77 504.961 305.25 505.021 306.63C505.041 307.06 504.861 307.28 505.131 307.57C505.221 307.67 505.381 307.81 505.781 307.88C506.451 308 508.241 307.98 509.151 307.98C513.411 307.97 517.531 308.04 521.771 307.97C522.071 307.97 522.381 307.96 522.641 307.93C523.291 307.86 523.481 307.52 523.471 307.38C523.421 306.24 523.551 305.66 523.551 304.6C523.551 304.36 523.551 304.23 523.551 303.88C524.091 303.88 524.631 303.88 525.181 303.87C525.621 303.87 526.071 303.86 526.441 303.83C527.381 303.76 527.661 303.42 527.651 303.28C527.581 302.14 527.761 301.56 527.761 300.5C527.761 300.26 527.761 300.13 527.751 299.78C527.751 299.76 527.751 299.74 527.751 299.71C528.681 299.68 529.611 299.65 530.551 299.6C531.201 299.57 531.881 299.53 532.441 299.35C533.841 298.89 534.261 296.82 534.241 295.92C534.131 288.9 534.411 285.27 534.411 278.7C534.411 277.21 534.411 276.39 534.391 274.25L534.371 274.22Z" fill="#303030"/>
<path d="M499.739 275.91C499.739 274.79 499.739 273.89 499.739 272.77C499.739 272.64 499.729 272.27 499.719 272.16C499.699 271.92 499.619 271.94 499.579 271.94C499.229 271.94 499.089 271.94 498.599 271.96C498.459 271.96 498.379 271.9 498.289 272C498.259 272.03 498.209 272.1 498.189 272.25C498.149 272.51 498.159 273.19 498.159 273.54C498.159 275.17 498.139 276.75 498.159 278.37C498.159 278.49 498.159 278.6 498.169 278.7C498.189 278.95 498.309 279.02 498.349 279.02C498.729 279 498.919 279.05 499.269 279.05C499.349 279.05 499.389 279.05 499.509 279.05C499.569 279.05 499.679 279.12 499.719 278.88C499.749 278.68 499.739 277.67 499.739 277.39C499.739 276.89 499.739 276.4 499.739 275.9V275.91Z" fill="#F7F7F7"/>
<path d="M502.81 275.91C502.81 274.79 502.81 273.89 502.81 272.77C502.81 272.64 502.8 272.27 502.79 272.16C502.77 271.92 502.69 271.94 502.65 271.94C502.3 271.94 502.16 271.94 501.67 271.96C501.53 271.96 501.45 271.9 501.36 272C501.33 272.03 501.28 272.1 501.26 272.25C501.22 272.51 501.23 273.19 501.23 273.54C501.23 275.17 501.21 276.75 501.23 278.37C501.23 278.49 501.23 278.6 501.24 278.7C501.26 278.95 501.38 279.02 501.42 279.02C501.8 279 501.99 279.05 502.34 279.05C502.42 279.05 502.46 279.05 502.58 279.05C502.64 279.05 502.75 279.12 502.79 278.88C502.82 278.68 502.81 277.67 502.81 277.39C502.81 276.89 502.81 276.4 502.81 275.9V275.91Z" fill="#F7F7F7"/>
<path d="M505.819 275.91C505.819 274.79 505.819 273.89 505.819 272.77C505.819 272.64 505.809 272.27 505.799 272.16C505.779 271.92 505.699 271.94 505.659 271.94C505.309 271.94 505.169 271.94 504.679 271.96C504.539 271.96 504.459 271.9 504.369 272C504.339 272.03 504.289 272.1 504.269 272.25C504.229 272.51 504.239 273.19 504.239 273.54C504.239 275.17 504.219 276.75 504.239 278.37C504.239 278.49 504.239 278.6 504.249 278.7C504.269 278.95 504.389 279.02 504.429 279.02C504.809 279 504.999 279.05 505.349 279.05C505.429 279.05 505.469 279.05 505.589 279.05C505.649 279.05 505.759 279.12 505.799 278.88C505.829 278.68 505.819 277.67 505.819 277.39C505.819 276.89 505.819 276.4 505.819 275.9V275.91Z" fill="#F7F7F7"/>
<path d="M508.89 275.91C508.89 274.79 508.89 273.89 508.89 272.77C508.89 272.64 508.88 272.27 508.87 272.16C508.85 271.92 508.77 271.94 508.73 271.94C508.38 271.94 508.24 271.94 507.75 271.96C507.61 271.96 507.53 271.9 507.44 272C507.41 272.03 507.36 272.1 507.34 272.25C507.3 272.51 507.31 273.19 507.31 273.54C507.31 275.17 507.29 276.75 507.31 278.37C507.31 278.49 507.31 278.6 507.32 278.7C507.34 278.95 507.46 279.02 507.5 279.02C507.88 279 508.07 279.05 508.42 279.05C508.5 279.05 508.54 279.05 508.66 279.05C508.72 279.05 508.83 279.12 508.87 278.88C508.9 278.68 508.89 277.67 508.89 277.39C508.89 276.89 508.89 276.4 508.89 275.9V275.91Z" fill="#F7F7F7"/>
<path d="M512.03 275.91C512.03 274.79 512.03 273.89 512.03 272.77C512.03 272.64 512.02 272.27 512.01 272.16C511.99 271.92 511.91 271.94 511.87 271.94C511.52 271.94 511.38 271.94 510.89 271.96C510.75 271.96 510.67 271.9 510.58 272C510.55 272.03 510.5 272.1 510.48 272.25C510.44 272.51 510.45 273.19 510.45 273.54C510.45 275.17 510.43 276.75 510.45 278.37C510.45 278.49 510.45 278.6 510.46 278.7C510.48 278.95 510.6 279.02 510.64 279.02C511.02 279 511.21 279.05 511.56 279.05C511.64 279.05 511.68 279.05 511.8 279.05C511.86 279.05 511.97 279.12 512.01 278.88C512.04 278.68 512.03 277.67 512.03 277.39C512.03 276.89 512.03 276.4 512.03 275.9V275.91Z" fill="#F7F7F7"/>
<path d="M515.11 275.91C515.11 274.79 515.11 273.89 515.11 272.77C515.11 272.64 515.1 272.27 515.09 272.16C515.07 271.92 514.99 271.94 514.95 271.94C514.6 271.94 514.46 271.94 513.97 271.96C513.83 271.96 513.75 271.9 513.66 272C513.63 272.03 513.58 272.1 513.56 272.25C513.52 272.51 513.53 273.19 513.53 273.54C513.53 275.17 513.51 276.75 513.53 278.37C513.53 278.49 513.53 278.6 513.54 278.7C513.56 278.95 513.68 279.02 513.72 279.02C514.1 279 514.29 279.05 514.64 279.05C514.72 279.05 514.76 279.05 514.88 279.05C514.94 279.05 515.05 279.12 515.09 278.88C515.12 278.68 515.11 277.67 515.11 277.39C515.11 276.89 515.11 276.4 515.11 275.9V275.91Z" fill="#F7F7F7"/>
<path d="M518.11 275.91C518.11 274.79 518.11 273.89 518.11 272.77C518.11 272.64 518.1 272.27 518.09 272.16C518.07 271.92 517.99 271.94 517.95 271.94C517.6 271.94 517.46 271.94 516.97 271.96C516.83 271.96 516.75 271.9 516.66 272C516.63 272.03 516.58 272.1 516.56 272.25C516.52 272.51 516.53 273.19 516.53 273.54C516.53 275.17 516.51 276.75 516.53 278.37C516.53 278.49 516.53 278.6 516.54 278.7C516.56 278.95 516.68 279.02 516.72 279.02C517.1 279 517.29 279.05 517.64 279.05C517.72 279.05 517.76 279.05 517.88 279.05C517.94 279.05 518.05 279.12 518.09 278.88C518.12 278.68 518.11 277.67 518.11 277.39C518.11 276.89 518.11 276.4 518.11 275.9V275.91Z" fill="#F7F7F7"/>
<path d="M521.181 275.91C521.181 274.79 521.181 273.89 521.181 272.77C521.181 272.64 521.171 272.27 521.161 272.16C521.141 271.92 521.061 271.94 521.021 271.94C520.671 271.94 520.531 271.94 520.041 271.96C519.901 271.96 519.821 271.9 519.731 272C519.701 272.03 519.651 272.1 519.631 272.25C519.591 272.51 519.601 273.19 519.601 273.54C519.601 275.17 519.581 276.75 519.601 278.37C519.601 278.49 519.601 278.6 519.611 278.7C519.631 278.95 519.751 279.02 519.791 279.02C520.171 279 520.361 279.05 520.711 279.05C520.791 279.05 520.831 279.05 520.951 279.05C521.011 279.05 521.121 279.12 521.161 278.88C521.191 278.68 521.181 277.67 521.181 277.39C521.181 276.89 521.181 276.4 521.181 275.9V275.91Z" fill="#F7F7F7"/>
<path d="M524.271 275.92C524.271 274.8 524.271 273.9 524.271 272.78C524.271 272.65 524.261 272.28 524.251 272.17C524.231 271.93 524.151 271.95 524.111 271.95C523.761 271.95 523.621 271.95 523.131 271.97C522.991 271.97 522.911 271.91 522.821 272.01C522.791 272.04 522.74 272.11 522.72 272.26C522.68 272.52 522.691 273.2 522.691 273.55C522.691 275.18 522.671 276.76 522.691 278.38C522.691 278.5 522.691 278.61 522.701 278.71C522.721 278.96 522.841 279.03 522.881 279.03C523.261 279.01 523.451 279.06 523.801 279.06C523.881 279.06 523.921 279.06 524.041 279.06C524.101 279.06 524.211 279.13 524.251 278.89C524.281 278.69 524.271 277.68 524.271 277.4C524.271 276.9 524.271 276.41 524.271 275.91V275.92Z" fill="#F7F7F7"/>
<path d="M527.351 275.92C527.351 274.8 527.351 273.9 527.351 272.78C527.351 272.65 527.341 272.28 527.331 272.17C527.311 271.93 527.231 271.95 527.191 271.95C526.841 271.95 526.701 271.95 526.211 271.97C526.071 271.97 525.991 271.91 525.901 272.01C525.871 272.04 525.821 272.11 525.801 272.26C525.761 272.52 525.771 273.2 525.771 273.55C525.771 275.18 525.751 276.76 525.771 278.38C525.771 278.5 525.771 278.61 525.781 278.71C525.801 278.96 525.921 279.03 525.961 279.03C526.341 279.01 526.531 279.06 526.881 279.06C526.961 279.06 527.001 279.06 527.121 279.06C527.181 279.06 527.291 279.13 527.331 278.89C527.361 278.69 527.351 277.68 527.351 277.4C527.351 276.9 527.351 276.41 527.351 275.91V275.92Z" fill="#F7F7F7"/>
<path d="M530.351 275.92C530.351 274.8 530.351 273.9 530.351 272.78C530.351 272.65 530.341 272.28 530.331 272.17C530.311 271.93 530.231 271.95 530.191 271.95C529.841 271.95 529.701 271.95 529.211 271.97C529.071 271.97 528.991 271.91 528.901 272.01C528.871 272.04 528.821 272.11 528.801 272.26C528.761 272.52 528.771 273.2 528.771 273.55C528.771 275.18 528.751 276.76 528.771 278.38C528.771 278.5 528.771 278.61 528.781 278.71C528.801 278.96 528.921 279.03 528.961 279.03C529.341 279.01 529.531 279.06 529.881 279.06C529.961 279.06 530.001 279.06 530.121 279.06C530.181 279.06 530.291 279.13 530.331 278.89C530.361 278.69 530.351 277.68 530.351 277.4C530.351 276.9 530.351 276.41 530.351 275.91V275.92Z" fill="#F7F7F7"/>
<path d="M536.78 330.02C536.78 328.54 537.24 325.49 535.7 324.38C534.45 323.47 528.02 323.73 526.26 323.75C523.1 323.8 519.95 323.75 516.79 323.82C509.67 323.97 503.96 323.56 496.85 323.82C496 323.85 493.68 324.1 492.96 324.4C491.46 325.04 491.91 327.24 491.92 328.47C491.97 337.71 491.94 345.29 491.71 354.53C491.62 358.31 491.33 360.3 491.99 362.91C492.21 363.79 492.6 365.04 493.56 365.65C495.19 366.69 499.55 366.52 501.75 366.49C512.12 366.36 522.15 367.02 532.47 366.37C533.2 366.32 533.96 366.27 534.59 366.01C536.16 365.35 536.63 362.37 536.61 361.09C536.48 351.02 536.8 345.81 536.8 336.39C536.8 334.25 536.8 333.08 536.78 330.01V330.02Z" fill="#5E5E5E"/>
<path d="M534.371 330.32C534.371 329.29 534.781 327.16 533.411 326.39C532.291 325.76 526.561 325.93 524.991 325.95C522.181 325.98 519.361 325.95 516.551 326C510.201 326.11 505.121 325.82 498.771 326C498.011 326.02 495.951 326.19 495.301 326.41C493.961 326.85 494.371 328.39 494.371 329.25C494.421 335.69 494.391 340.98 494.191 347.42C494.111 350.06 493.851 351.44 494.441 353.26C494.641 353.88 494.991 354.75 495.841 355.17C496.811 355.65 498.881 355.76 500.731 355.77C500.761 356.75 500.701 357.2 500.731 358.61C500.731 359.17 500.601 359.26 500.991 359.55C501.121 359.65 501.361 359.79 501.931 359.86C502.541 359.93 503.791 359.95 504.961 359.96C504.981 360.87 504.961 361.35 505.021 362.73C505.041 363.16 504.861 363.38 505.131 363.67C505.221 363.77 505.381 363.91 505.781 363.98C506.451 364.1 508.241 364.08 509.151 364.08C513.411 364.07 517.531 364.14 521.771 364.07C522.071 364.07 522.381 364.06 522.641 364.03C523.291 363.96 523.481 363.62 523.471 363.48C523.421 362.34 523.551 361.76 523.551 360.7C523.551 360.46 523.551 360.33 523.551 359.98C524.091 359.98 524.631 359.98 525.181 359.97C525.621 359.97 526.071 359.96 526.441 359.93C527.381 359.86 527.661 359.52 527.651 359.38C527.581 358.25 527.761 357.66 527.761 356.6C527.761 356.36 527.761 356.23 527.751 355.88C527.751 355.86 527.751 355.84 527.751 355.81C528.681 355.78 529.611 355.75 530.551 355.7C531.201 355.67 531.881 355.63 532.441 355.45C533.841 354.99 534.261 352.92 534.241 352.02C534.131 345 534.411 341.37 534.411 334.8C534.411 333.31 534.411 332.49 534.391 330.35L534.371 330.32Z" fill="#303030"/>
<path d="M553.611 444.64C558.161 444.64 567.511 444.84 570.901 444.16C573.681 443.6 572.901 440.71 572.821 439.92C572.681 438.5 572.821 437.08 572.621 435.66C572.161 432.46 573.431 429.9 572.641 426.7C572.551 426.32 571.801 425.28 570.851 424.95C568.901 424.28 562.131 424.48 558.371 424.48C530.031 424.5 506.791 424.49 478.451 424.39C466.851 424.35 460.751 424.22 452.751 424.51C450.041 424.61 446.211 424.79 444.351 425.22C441.171 425.95 441.681 427.91 441.761 428.9C442.151 433.56 440.121 438.06 442.121 442.7C442.261 443.03 442.421 443.37 443.231 443.65C445.271 444.36 454.381 444.57 458.321 444.56C489.191 444.5 505.161 444.65 534.041 444.65C540.601 444.65 544.191 444.65 553.611 444.65V444.64Z" fill="#BFBFBF"/>
<path d="M315.461 355.36C316.881 354.43 318.291 353.18 318.561 351.5C318.851 349.67 317.631 347.85 316.021 346.93C314.411 346.01 312.491 345.81 310.641 345.76C307.211 345.66 303.771 346 300.431 346.77C294.371 348.16 288.311 354.77 296.831 357.76C302.911 359.89 310.091 358.87 315.461 355.37V355.36Z" fill="#F0DDD1"/>
<path d="M474.64 60.6796C474.23 60.9796 473.89 61.3696 473.63 61.7996C472.73 63.2996 472.83 65.3596 473.94 66.7196C475.05 68.0796 477.1 68.5896 478.68 67.8496C480.26 67.1096 481.17 65.3096 481.19 63.5696C481.19 63.0896 481.14 62.6096 480.97 62.1596C480.13 59.9496 476.42 59.4096 474.65 60.6896L474.64 60.6796Z" fill="#999999"/>
<path d="M474.64 118.54C474.23 118.84 473.89 119.23 473.63 119.66C472.73 121.16 472.83 123.22 473.94 124.58C475.05 125.94 477.1 126.45 478.68 125.71C480.26 124.97 481.17 123.17 481.19 121.43C481.19 120.95 481.14 120.47 480.97 120.02C480.13 117.81 476.42 117.27 474.65 118.55L474.64 118.54Z" fill="#999999"/>
<path d="M474.64 173.46C474.23 173.76 473.89 174.15 473.63 174.58C472.73 176.08 472.83 178.14 473.94 179.5C475.05 180.86 477.1 181.37 478.68 180.63C480.26 179.89 481.17 178.09 481.19 176.35C481.19 175.87 481.14 175.39 480.97 174.94C480.13 172.73 476.42 172.19 474.65 173.47L474.64 173.46Z" fill="#999999"/>
<path d="M474.64 229.76C474.23 230.06 473.89 230.45 473.63 230.88C472.73 232.38 472.83 234.44 473.94 235.8C475.05 237.16 477.1 237.67 478.68 236.93C480.26 236.19 481.17 234.39 481.19 232.65C481.19 232.17 481.14 231.69 480.97 231.24C480.13 229.03 476.42 228.49 474.65 229.77L474.64 229.76Z" fill="#999999"/>
<path d="M474.64 283.83C474.23 284.13 473.89 284.52 473.63 284.95C472.73 286.45 472.83 288.51 473.94 289.87C475.05 291.23 477.1 291.74 478.68 291C480.26 290.26 481.17 288.46 481.19 286.72C481.19 286.24 481.14 285.76 480.97 285.31C480.13 283.1 476.42 282.56 474.65 283.84L474.64 283.83Z" fill="#999999"/>
<path d="M474.64 340.09C474.23 340.39 473.89 340.78 473.63 341.21C472.73 342.71 472.83 344.77 473.94 346.13C475.05 347.49 477.1 348 478.68 347.26C480.26 346.52 481.17 344.72 481.19 342.98C481.19 342.5 481.14 342.02 480.97 341.57C480.13 339.36 476.42 338.82 474.65 340.1L474.64 340.09Z" fill="#AFD9C4"/>
<path d="M596.351 678.87C581.951 649.35 548.881 631.49 519.491 620.32C488.131 608.41 454.851 602.92 422.321 595.27C394.541 588.73 354.511 580.87 345.551 548.9C335.961 514.7 379.041 505.3 403.361 501.25C438.151 495.45 473.831 492.4 502.201 469.2C514.111 459.46 523.461 446.01 526.941 430.89C531.271 412.06 528.971 391.28 527.151 372.24C526.171 362.07 524.891 351.92 523.431 341.81C521.931 331.37 503.541 333.73 504.851 344.33C507.221 363.53 508.811 382.88 509.431 402.22C509.941 418.09 508.581 433.44 497.951 446.01C476.501 471.36 441.491 475.78 410.661 480.37C380.591 484.85 340.721 490.68 327.761 522.92C321.771 537.82 324.851 554.97 332.751 568.57C341.031 582.82 354.751 592.98 369.611 599.59C399.961 613.09 433.951 617.45 466.121 624.81C497.201 631.92 528.401 640.98 554.651 659.75C566.311 668.08 577.851 679.34 582.421 693.29C587.551 708.93 582.161 725.9 575.551 740.31C568.901 754.81 559.661 768.08 547.001 777.96C534.221 787.94 518.941 794.35 503.621 799.3C432.401 822.31 355.931 819.85 281.611 818.16C272.191 817.95 262.761 815.91 253.331 815.82C247.991 815.77 248.281 831.59 253.331 832.17C329.821 840.95 409.231 840.91 484.411 822.84C517.391 814.91 552.171 803.28 574.431 776.16C595.631 750.34 612.071 711.05 596.361 678.87H596.351Z" fill="#C4A451"/>
<path d="M236.129 494.35C239.599 503.03 243.269 511.63 246.039 520.58C254.229 547.09 254.119 575.71 251.149 603.45C248.179 631.19 242.439 658.57 239.609 686.33C234.289 687.4 228.779 687.48 223.439 686.57C223.559 651.05 223.289 615.53 222.639 580.02C222.589 577.35 222.529 574.64 221.849 572.08C221.109 569.3 219.659 566.8 218.229 564.34C200.219 533.33 182.199 502.31 164.189 471.3C159.559 463.33 154.889 455.26 152.279 446.33C149.679 437.4 149.329 427.38 153.239 418.95C159.249 405.97 174.799 399.57 188.219 402.63C203.689 406.16 213.679 417.8 216.469 433.38C220.219 454.32 228.329 474.77 236.149 494.35H236.129Z" fill="#4D4D4D"/>
<path d="M103.94 655.1C97.2399 654.65 90.7598 652.01 85.8398 647.74C99.0698 628.84 104.79 607.94 118.03 589.04C122.22 583.06 126.42 577.05 129.46 570.5C133.2 562.44 135.09 553.77 136.96 545.17C144.2 511.82 139.99 471.35 147.23 438C147.84 435.2 148.48 432.32 150.22 429.97C155.21 423.22 184.85 433.28 193.34 434.96C195.2 435.33 197.22 435.79 198.38 437.2C199.7 438.82 202.94 434.92 202.74 436.97C201.08 453.82 203.97 446.48 199.69 473.01C198.19 482.34 183.26 541.47 179.6 550.28C173.13 565.84 164.77 581.83 153.04 594.4C134.99 613.76 122.53 631.83 103.94 655.11V655.1Z" fill="#4D4D4D"/>
<path d="M110.091 654.06C112.321 656.92 108.571 661.62 110.751 664.39C114.301 668.89 122.211 667.02 125.681 671.59C126.801 673.07 127.241 674.99 127.441 676.87C127.781 680.11 127.501 683.43 126.621 686.57C126.451 687.19 126.241 687.82 125.831 688.3C125.451 688.75 124.941 689.04 124.421 689.27C121.301 690.67 117.701 690.32 114.561 689.08C111.421 687.84 108.661 685.79 105.941 683.76C96.601 676.79 87.251 669.82 77.911 662.86C77.471 662.53 77.011 662.17 76.801 661.65C76.581 661.09 76.701 660.46 76.841 659.87C77.841 655.65 80.071 651.87 82.271 648.16C84.061 645.13 85.861 642.11 87.791 639.17C87.791 639.17 102.841 644.75 110.091 654.05V654.06Z" fill="#454545"/>
<path d="M245.811 685.81C248.731 686.4 247.911 691.56 250.371 693.02C252.441 694.26 254.921 694.41 257.311 694.54C260.371 694.7 263.441 694.86 266.501 695.02C268.611 695.13 270.911 695.32 272.461 696.83C274.191 698.52 274.401 701.28 274.501 703.77C274.601 706.36 274.641 709.18 273.171 711.26C271.171 714.09 267.311 714.37 263.961 714.35C252.121 714.28 234.361 713.57 222.561 712.6C221.171 712.49 219.571 712.24 218.841 710.99C218.371 710.18 218.401 709.17 218.451 708.22L219.541 686.51C219.541 686.51 236.161 683.84 245.801 685.81H245.811Z" fill="#454545"/>
<path d="M203.4 306.39C211.1 308.28 217.66 313.3 223.26 318.91C228.86 324.52 233.73 330.84 239.53 336.24C241.99 338.53 244.75 340.72 248.04 341.38C250.67 341.9 253.38 341.4 256.02 340.89C268.08 338.57 280.13 336.25 292.19 333.94C297.35 332.95 302.63 331.95 307.83 332.68C308.17 336.62 308.52 340.55 308.86 344.49C308.9 344.95 308.93 345.45 308.67 345.83C308.4 346.23 307.89 346.39 307.42 346.52C292.04 350.69 276.67 354.86 261.29 359.02C252.63 361.37 243.92 363.72 234.98 364.55C233.19 364.71 231.35 364.81 229.65 364.23C228.12 363.71 226.82 362.67 225.58 361.64C212.07 350.41 200.59 336.98 189.19 323.61C187.4 321.51 185.53 319.26 185.09 316.53C183.76 308.25 197.57 304.95 203.39 306.38L203.4 306.39Z" fill="#F2F2F2"/>
<path d="M371.581 326.98C380.981 324.66 390.261 321.81 399.341 318.46C399.951 318.24 400.591 317.98 400.951 317.44C401.171 317.11 401.251 316.7 401.271 316.3C401.311 315.43 401.081 314.58 400.861 313.74C399.791 309.74 398.721 305.73 397.311 301.84C397.081 301.21 396.841 300.57 396.381 300.08C395.711 299.36 394.671 299.08 393.691 299.12C392.711 299.15 391.761 299.47 390.831 299.78C384.531 301.87 378.221 303.96 371.921 306.05C368.811 307.08 365.681 308.12 362.731 309.56C362.501 309.67 362.271 309.79 362.121 310C361.991 310.17 361.941 310.38 361.901 310.59C361.661 311.85 361.851 313.15 362.061 314.41C362.501 317.05 363.011 319.68 363.621 322.29C363.911 323.54 364.221 324.81 364.841 325.94C365.321 326.82 366.481 328.44 367.631 328.41C368.141 328.4 368.831 327.83 369.321 327.65C370.051 327.37 370.821 327.19 371.581 327V326.98Z" fill="#262626"/>
<path d="M388.1 304.44C390.17 303.74 391.83 303.2 393.89 302.5C394.14 302.42 394.81 302.18 395.01 302.1C395.44 301.93 395.39 301.88 395.37 301.84C395.26 301.55 395.23 301.42 395.05 301.02C395 300.9 395.1 300.8 394.88 300.78C394.81 300.78 394.68 300.78 394.39 300.85C393.91 300.98 392.64 301.41 392 301.62C388.99 302.63 386.07 303.59 383.08 304.61C382.87 304.68 382.65 304.76 382.47 304.83C382.02 305 381.92 305.14 381.94 305.18C382.08 305.49 382.05 305.68 382.15 305.98C382.17 306.05 382.19 306.08 382.22 306.18C382.24 306.23 382.14 306.37 382.59 306.25C382.96 306.16 384.83 305.52 385.34 305.35C386.26 305.04 387.17 304.74 388.09 304.43L388.1 304.44Z" fill="#F7F7F7"/>
<path d="M388.979 307.04C391.049 306.34 392.709 305.8 394.769 305.1C395.019 305.02 395.689 304.78 395.889 304.7C396.319 304.53 396.269 304.48 396.249 304.44C396.139 304.15 396.109 304.02 395.929 303.62C395.879 303.5 395.979 303.4 395.759 303.38C395.689 303.38 395.559 303.38 395.269 303.45C394.789 303.58 393.519 304.01 392.879 304.22C389.869 305.23 386.949 306.19 383.959 307.21C383.749 307.28 383.529 307.36 383.349 307.43C382.899 307.6 382.799 307.74 382.809 307.78C382.949 308.09 382.919 308.28 383.019 308.58C383.039 308.65 383.059 308.68 383.089 308.78C383.109 308.83 383.009 308.97 383.459 308.85C383.829 308.76 385.699 308.12 386.209 307.95C387.129 307.64 388.039 307.34 388.959 307.03L388.979 307.04Z" fill="#F7F7F7"/>
<path d="M389.83 309.58C391.9 308.88 393.56 308.34 395.62 307.64C395.87 307.56 396.54 307.32 396.74 307.24C397.17 307.07 397.12 307.02 397.1 306.98C396.99 306.69 396.96 306.56 396.78 306.16C396.73 306.04 396.83 305.94 396.61 305.92C396.54 305.92 396.41 305.92 396.12 305.99C395.64 306.12 394.37 306.55 393.73 306.76C390.72 307.77 387.8 308.73 384.81 309.75C384.6 309.82 384.38 309.9 384.2 309.97C383.75 310.14 383.65 310.28 383.67 310.32C383.81 310.63 383.78 310.82 383.88 311.12C383.9 311.19 383.92 311.22 383.95 311.32C383.97 311.37 383.87 311.51 384.32 311.39C384.69 311.3 386.56 310.66 387.07 310.49C387.99 310.18 388.9 309.88 389.82 309.57L389.83 309.58Z" fill="#F7F7F7"/>
<path d="M390.7 312.19C392.77 311.49 394.43 310.95 396.49 310.25C396.74 310.17 397.41 309.93 397.61 309.85C398.04 309.68 397.99 309.63 397.97 309.59C397.86 309.3 397.83 309.17 397.65 308.77C397.6 308.65 397.7 308.55 397.48 308.53C397.41 308.53 397.28 308.53 396.99 308.6C396.51 308.73 395.24 309.16 394.6 309.37C391.59 310.38 388.67 311.34 385.68 312.36C385.47 312.43 385.25 312.51 385.07 312.58C384.62 312.75 384.52 312.89 384.53 312.93C384.67 313.24 384.64 313.43 384.74 313.73C384.76 313.8 384.78 313.83 384.81 313.93C384.83 313.98 384.73 314.12 385.18 314C385.55 313.91 387.42 313.27 387.93 313.1C388.85 312.79 389.76 312.49 390.68 312.18L390.7 312.19Z" fill="#F7F7F7"/>
<path d="M198.85 298.98C204.02 298.84 210.2 299.18 212.84 303.62C213.82 305.26 214.1 307.21 214.37 309.11C215.52 317.23 216.67 325.36 217.11 333.55C217.66 343.85 217.08 354.18 217.59 364.48C218.74 387.48 225.33 409.79 230.91 432.13C232.61 438.94 234.23 445.97 233.2 452.91C233.03 454.03 232.78 455.17 232.15 456.11C231.39 457.24 230.16 457.96 228.97 458.62C203.24 472.85 172.94 478.64 143.78 474.92C140.23 474.47 136.54 473.81 133.72 471.61C130.52 469.12 128.99 465.08 127.84 461.19C121.84 440.9 122.22 419.15 125.88 398.31C129.54 377.47 136.38 357.34 143.19 337.31C147.16 325.64 151.13 313.97 155.1 302.29C159.08 290.58 162.41 290.26 172.61 295.07C180.78 298.92 189.95 299.21 198.84 298.97L198.85 298.98Z" fill="#AA6A64"/>
<path d="M172.1 283.24C175.59 287.58 180.77 290.13 185.78 292.55C189.87 294.53 194.23 296.56 198.75 296.1C206.61 295.31 211.66 287.62 215.53 280.74C221.35 270.41 227.33 259.51 227.46 247.66C227.58 236.9 222.5 226.2 214.07 219.5C205.65 212.8 194.08 210.26 183.62 212.8C171.05 215.86 156.48 224.67 159.62 239.24C161.04 245.84 163.46 252.08 164.62 258.77C166.04 266.95 166.68 276.51 172.09 283.24H172.1Z" fill="#F0DDD1"/>
<path d="M347.35 318.03C312.64 324.82 278.05 336.06 248.03 355.11C233.27 364.47 219.39 375.67 207.73 388.72C195.1 402.85 189.74 416.96 180.22 433.22C161.09 465.89 144.57 496.08 114.03 523.86C84.4599 550.75 45.7799 567.62 6.97985 575.38C-4.50015 577.68 -0.780147 593.54 10.6499 591.37C86.2499 577.01 145.78 522.25 187.2 459.91C197.88 443.83 206.23 426.3 217.19 410.41C227.05 396.12 239.54 383.45 253.5 373.14C282.34 351.83 316.43 339.27 351.44 332.72C366.34 329.93 362.26 315.12 347.35 318.04V318.03Z" fill="#C4A451"/>
<path d="M382.541 324.13C382.111 319.64 379.071 315.84 377.871 311.49C376.961 308.16 376.771 303.99 373.721 302.37C371.491 301.19 368.781 302.02 366.391 302.83C362.541 304.13 358.641 305.31 354.711 306.36C339.621 310.4 324.011 312.61 309.361 318.04C309.731 319.11 310.101 320.18 310.471 321.25C307.121 322.14 303.791 323.14 300.531 324.35C300.691 324.83 300.861 325.31 301.021 325.78C299.751 326.24 298.501 326.72 297.271 327.27C294.711 328.4 291.961 330.13 291.551 332.9C291.311 334.5 291.931 336.09 292.541 337.59C294.541 342.53 295.731 351.89 302.501 349C304.241 348.26 306.171 347.38 308.181 346.53C308.331 346.97 308.481 347.41 308.631 347.84C308.731 348.14 308.861 348.47 309.131 348.64C309.421 348.82 309.801 348.77 310.131 348.7C313.181 348.13 316.161 347.29 319.121 346.34C319.261 346.76 319.411 347.18 319.551 347.6C319.681 347.98 319.841 348.39 320.181 348.61C320.551 348.84 321.021 348.77 321.441 348.69C332.741 346.57 343.311 341.69 354.271 338.22C362.461 335.63 370.941 333.82 378.781 330.3C379.741 329.87 380.721 329.39 381.411 328.6C382.451 327.41 382.681 325.71 382.521 324.13H382.541Z" fill="#262626"/>
<path d="M321.709 330.4C322.639 329.93 323.599 329.27 323.939 328.18C324.229 327.27 324.019 326.26 323.779 325.34C322.879 321.89 321.569 318.58 319.889 315.52C319.749 315.27 319.599 315.01 319.379 314.86C319.109 314.68 318.769 314.69 318.449 314.75C317.359 314.93 316.219 315.51 315.319 316.21C314.369 316.95 314.579 317.43 315.039 318.64C316.439 322.28 317.839 325.91 319.239 329.55C319.369 329.89 319.509 330.25 319.769 330.48C320.309 330.96 321.089 330.71 321.709 330.4Z" fill="#0F0F0F"/>
<path d="M327.56 327.71C327.62 327.89 327.69 328.07 327.81 328.2C328.05 328.44 328.41 328.41 328.72 328.36C329.53 328.23 330.36 328.04 331.06 327.57C331.77 327.1 332.34 326.3 332.4 325.37C332.45 324.65 332.18 323.95 331.92 323.29C330.66 320.11 329.4 316.93 328.15 313.75C327.96 313.27 327.74 312.75 327.33 312.5C326.47 311.98 324.27 312.98 323.58 313.64C322.54 314.65 323.58 316.27 323.98 317.44C325.17 320.86 326.34 324.29 327.56 327.7V327.71Z" fill="#0F0F0F"/>
<path d="M336.599 324.91C336.659 325.09 336.719 325.27 336.839 325.4C337.069 325.65 337.449 325.63 337.769 325.6C338.609 325.51 339.469 325.37 340.209 324.95C340.959 324.53 341.589 323.78 341.689 322.89C341.769 322.19 341.529 321.5 341.289 320.85C340.139 317.71 338.989 314.57 337.839 311.43C337.669 310.95 337.459 310.44 337.049 310.18C336.189 309.64 333.879 310.49 333.139 311.11C332.019 312.04 333.009 313.66 333.379 314.82C334.449 318.19 335.499 321.57 336.599 324.93V324.91Z" fill="#0F0F0F"/>
<path d="M344.76 322.08C344.81 322.24 344.86 322.41 344.98 322.53C345.19 322.76 345.53 322.75 345.83 322.71C346.59 322.63 347.37 322.5 348.05 322.11C348.73 321.72 349.3 321.03 349.4 320.21C349.47 319.57 349.25 318.93 349.03 318.33C347.99 315.43 346.94 312.54 345.9 309.65C345.74 309.21 345.56 308.74 345.18 308.5C344.39 308 342.29 308.79 341.62 309.36C340.6 310.22 341.5 311.71 341.84 312.78C342.81 315.89 343.76 319 344.76 322.1V322.08Z" fill="#0F0F0F"/>
<path d="M325.869 333.24C325.699 332.73 325.499 332.19 325.089 331.91C324.239 331.34 321.939 332.26 321.209 332.91C320.099 333.9 321.079 335.63 321.439 336.86C322.489 340.45 323.519 344.04 324.589 347.62C324.639 347.81 324.699 348 324.829 348.14C325.059 348.4 325.429 348.39 325.749 348.35C326.579 348.25 327.429 348.1 328.179 347.65C328.929 347.2 329.549 346.4 329.649 345.45C329.729 344.7 329.489 343.97 329.259 343.28C328.129 339.94 326.999 336.6 325.869 333.25V333.24Z" fill="#0F0F0F"/>
<path d="M334.27 330.82C334.09 330.33 333.89 329.8 333.47 329.54C332.59 328.98 330.24 329.87 329.49 330.5C328.35 331.45 329.36 333.12 329.73 334.32C330.82 337.79 331.88 341.27 333 344.73C333.06 344.91 333.12 345.1 333.24 345.23C333.48 345.48 333.86 345.47 334.19 345.44C335.05 345.35 335.92 345.2 336.68 344.77C337.44 344.34 338.08 343.56 338.19 342.64C338.27 341.92 338.02 341.21 337.78 340.54C336.61 337.31 335.44 334.07 334.28 330.84L334.27 330.82Z" fill="#0F0F0F"/>
<path d="M343.09 327.71C342.91 327.22 342.7 326.7 342.27 326.43C341.37 325.87 338.96 326.75 338.19 327.38C337.02 328.33 338.06 330 338.44 331.18C339.56 334.64 340.65 338.11 341.8 341.56C341.86 341.74 341.92 341.93 342.05 342.06C342.29 342.31 342.68 342.3 343.02 342.27C343.9 342.18 344.79 342.03 345.57 341.6C346.35 341.17 347 340.4 347.11 339.48C347.19 338.76 346.94 338.06 346.69 337.38C345.49 334.16 344.29 330.93 343.09 327.71Z" fill="#0F0F0F"/>
<path d="M355.519 334.27C354.269 331.22 353.029 328.18 351.779 325.13C351.589 324.67 351.369 324.17 350.929 323.92C349.999 323.39 347.529 324.21 346.739 324.8C345.539 325.69 346.619 327.27 347.019 328.39C348.179 331.66 349.319 334.93 350.509 338.19C350.569 338.36 350.639 338.54 350.769 338.66C351.019 338.9 351.419 338.89 351.769 338.86C352.669 338.78 353.589 338.64 354.379 338.24C355.179 337.84 355.849 337.11 355.949 336.25C356.029 335.57 355.769 334.91 355.509 334.27H355.519Z" fill="#0F0F0F"/>
<g opacity="0.81">
<path d="M419.289 314.011C416.979 306.211 414.199 296.011 411.089 288.521C406.319 288.701 401.639 289.931 397.009 291.161C390.689 292.841 384.369 294.521 378.039 296.191C373.329 297.441 359.099 299.801 357.579 305.491C356.779 308.491 360.009 314.741 360.879 317.651C362.259 322.311 363.649 326.971 365.029 331.631C365.479 333.131 366.059 334.801 367.459 335.431C368.599 335.951 369.929 335.601 371.129 335.241C386.419 330.711 401.539 327.871 416.289 321.691C417.359 321.241 418.469 320.751 419.169 319.811C420.359 318.191 419.869 315.921 419.299 313.991L419.289 314.011Z" fill="#B3D6E3"/>
<path d="M363.14 296.83C363.39 296.4 363.77 296.07 364.14 295.74C370.5 290.16 378.57 284.92 386.16 281.17C386.45 281.03 386.77 280.88 387.08 280.95C387.28 280.99 387.449 281.12 387.609 281.24C388.499 281.92 388.12 282.68 388.98 283.39C389.26 283.62 389.56 283.96 389.43 284.29C389.36 284.46 389.2 284.56 389.05 284.65C382.47 288.72 376.99 292.48 370.1 296.02C369.84 296.15 369.57 296.3 369.43 296.56C369.3 296.82 369.33 297.12 369.37 297.41C369.49 298.27 369.61 299.12 369.73 299.98C369.76 300.21 369.79 300.45 369.66 300.64C369.52 300.85 369.24 300.9 369 300.95C367.93 301.13 364.99 302.11 364.33 301.3C363.71 300.53 362.66 297.64 363.14 296.82V296.83Z" fill="#B3D6E3"/>
</g>
<path d="M212.42 429.709C211.84 426.219 209.56 423.06 206.43 421.41C207.55 421.08 208.94 420.299 208.64 419.179C208.45 418.479 207.67 418.139 207 417.859C204.11 416.679 201.47 414.91 199.28 412.7C199.08 412.5 198.87 412.3 198.67 412.1C198.67 412.1 198.67 412.1 198.68 412.09C186.08 397.37 174.75 381.56 164.85 364.9C168.9 360.31 171.68 354.749 174.4 349.269C178.32 341.369 182.25 333.479 186.17 325.579C187.67 322.549 189.22 319.18 188.36 315.91C186.85 310.15 178.54 308.789 173.56 312.049C168.58 315.309 166.19 321.249 164.1 326.829C158.62 341.399 153.13 355.979 147.65 370.549C147.02 372.219 146.39 374.04 146.9 375.75C147.3 377.1 148.36 378.139 149.37 379.109C163.03 392.239 171.35 403.699 185 416.829C185.45 415.109 187.15 420.499 187.19 420.489C191.13 427.059 198.7 434.02 206.2 435.66C207 435.83 210.21 434.55 210.95 434.2C211.65 433.86 212.11 430.45 212.41 429.73L212.42 429.709Z" fill="#F0DDD1"/>
<path d="M200.73 401.5C200.66 398.11 194.76 396.55 195.62 393.27C193.09 394.82 190.56 396.36 188.03 397.91C183.81 389.56 179.6 381.21 175.38 372.86C174.36 370.84 173.33 368.78 173 366.54C172.45 362.79 173.95 359.06 175.49 355.6C180.48 344.34 186.23 333.42 192.68 322.92C194.74 319.56 198.37 314.89 196.64 310.72C195.16 307.13 190.06 303.75 186.73 302.33C182.98 300.74 178.55 300.53 174.87 302.29C170.01 304.63 167.3 309.81 164.93 314.66C158.79 327.2 152.64 339.75 147.27 352.64C144.34 359.68 141.61 366.94 140.96 374.53C140.72 377.36 140.8 380.34 142.13 382.84C143.08 384.63 144.59 386.04 146.07 387.42C155.02 395.75 163.98 404.07 172.93 412.4C173.33 412.77 173.76 413.21 173.75 413.75C173.74 414.42 173.08 414.86 172.67 415.4C171.79 416.55 172.1 418.28 172.98 419.43C173.87 420.58 175.2 421.27 176.49 421.94C183.07 416.01 190.1 410.57 197.49 405.68C199.03 404.66 200.77 403.34 200.73 401.5Z" fill="#F2F2F2"/>
<path d="M223.86 231.42C220.82 231.79 208.64 232.62 205.58 232.51C202.6 232.4 198.87 232.48 197.63 235.19C197.38 235.73 197.27 236.34 196.94 236.84C195.75 238.65 192.99 237.84 190.83 238.06C187.9 238.36 185.65 240.97 184.77 243.79C183.89 246.61 184.1 249.61 184.17 252.56C184.24 255.5 184.14 258.58 182.75 261.17C181.25 259.59 178.71 258.92 176.81 259.97C174.9 261.02 174.2 263.94 175.71 265.5C176.38 266.19 177.32 266.53 178.05 267.16C180.17 269 179.68 272.33 179.44 275.13C178.96 280.93 180.48 286.87 183.7 291.71C179.71 291.85 177.3 286.38 173.3 286.34C172.21 286.33 171.08 286.73 170.08 286.34C169.42 286.08 168.94 285.51 168.52 284.93C166.08 281.57 164.9 277.3 161.86 274.47C159.45 272.21 156.08 271.1 153.89 268.63C150.81 265.17 150.75 259.94 148.36 255.98C146.52 252.94 143.4 250.82 141.64 247.73C139.8 244.5 139.66 240.56 140.17 236.89C140.71 233 141.94 229.2 143.79 225.73C146.6 220.43 150.75 215.99 154.85 211.61C157.64 208.63 160.47 205.62 163.9 203.39C168.16 200.62 173.22 199.17 178.3 199.04C183.76 198.9 189.15 200.25 194.39 201.81C201.48 203.91 217.57 205.69 224.38 208.55C227.61 209.91 230.89 211.41 233.3 213.95C241.23 222.32 232.68 230.36 223.86 231.42Z" fill="#FCD79F"/>
<path d="M978.429 499.8C958.609 498.9 940.549 498.25 932.269 479.4C924.239 461.11 924.429 440.37 928.379 421.41C932.869 399.84 939.179 377.97 936.469 355.73C934.169 336.88 926.089 318.46 909.619 307.91C892.269 296.8 869.669 297.04 850.259 301.53C831.139 305.95 813.289 315.54 798.689 328.59C791.229 335.26 784.729 343 779.269 351.37C773.699 359.9 769.279 369.45 762.159 376.85C755.219 384.07 747.239 387.09 737.279 385.18C728.019 383.4 717.929 380.37 710.179 374.82C689.639 360.11 703.209 329.14 701.089 308.6C699.869 296.83 695.309 286.02 687.329 277.21C680.479 269.64 669.289 265.89 663.719 257.29C657.939 248.34 643.539 256.68 649.379 265.67C654.929 274.22 663.399 278.35 671.089 284.57C678.519 290.57 683.419 299.25 684.609 308.73C687.439 331.27 676.189 354.51 688.819 375.73C693.929 384.32 702.229 390.36 711.259 394.32C720.899 398.55 731.669 402.01 742.249 402.49C766.199 403.58 779.519 383.13 790.329 365.01C800.619 347.76 814.709 333.99 832.699 324.87C849.499 316.35 870.669 311.46 889.279 316.15C908.669 321.03 918.789 337.83 921.349 356.75C924.369 379.12 917.029 401.37 913.429 423.23C909.779 445.34 908.929 470.2 921.689 489.77C934.159 508.89 956.299 516.66 978.449 514.37C981.779 514.03 981.909 499.97 978.449 499.82L978.429 499.8Z" fill="#C4A451"/>
<path d="M613.77 202.88C607.89 195.89 601.62 189.22 595 182.93C594.56 182.51 594.07 182.07 593.47 182C593.09 181.95 592.72 182.06 592.37 182.21C591.62 182.54 590.99 183.08 590.38 183.62C587.44 186.19 584.49 188.77 581.79 191.59C581.35 192.04 580.91 192.52 580.69 193.11C580.36 193.98 580.55 194.97 580.99 195.79C581.43 196.61 582.09 197.28 582.74 197.94C587.13 202.4 591.53 206.87 595.92 211.33C598.09 213.54 600.27 215.75 602.72 217.64C602.91 217.79 603.11 217.94 603.34 217.98C603.54 218.02 603.74 217.98 603.93 217.92C605.09 217.59 606.11 216.89 607.1 216.19C609.16 214.72 611.16 213.19 613.12 211.59C614.06 210.82 615 210.03 615.7 209.04C616.24 208.27 617.13 206.61 616.63 205.65C616.41 205.22 615.64 204.87 615.28 204.54C614.74 204.04 614.26 203.46 613.79 202.89L613.77 202.88Z" fill="#262626"/>
<path d="M587.81 198.28C586.36 196.82 585.21 195.64 583.75 194.18C583.58 194.01 583.1 193.54 582.95 193.39C582.63 193.1 582.61 193.16 582.58 193.19C582.38 193.41 582.28 193.48 582.02 193.8C581.94 193.89 581.81 193.85 581.89 194.04C581.92 194.1 581.97 194.21 582.15 194.42C582.46 194.78 583.35 195.67 583.8 196.12C585.91 198.25 587.94 200.32 590.05 202.43C590.2 202.58 590.36 202.73 590.49 202.86C590.82 203.17 590.99 203.2 591.01 203.17C591.21 202.92 591.39 202.87 591.6 202.66C591.65 202.61 591.67 202.59 591.74 202.51C591.77 202.48 591.93 202.51 591.65 202.16C591.42 201.88 590.1 200.57 589.74 200.21C589.1 199.56 588.46 198.91 587.81 198.27V198.28Z" fill="#F7F7F7"/>
<path d="M589.65 196.45C588.2 194.99 587.05 193.81 585.59 192.35C585.42 192.18 584.94 191.71 584.79 191.56C584.47 191.27 584.45 191.33 584.42 191.36C584.22 191.58 584.12 191.65 583.86 191.97C583.78 192.06 583.65 192.02 583.73 192.21C583.76 192.27 583.81 192.38 583.99 192.59C584.3 192.95 585.19 193.84 585.64 194.29C587.75 196.42 589.78 198.49 591.89 200.6C592.04 200.75 592.2 200.9 592.33 201.03C592.66 201.34 592.83 201.37 592.85 201.34C593.05 201.09 593.23 201.04 593.44 200.83C593.49 200.78 593.51 200.76 593.58 200.68C593.61 200.65 593.77 200.68 593.49 200.33C593.26 200.05 591.94 198.74 591.58 198.38C590.94 197.73 590.3 197.08 589.65 196.44V196.45Z" fill="#F7F7F7"/>
<path d="M591.451 194.67C590.001 193.21 588.851 192.03 587.391 190.57C587.221 190.4 586.741 189.93 586.591 189.78C586.271 189.49 586.251 189.55 586.221 189.58C586.021 189.8 585.921 189.87 585.661 190.19C585.581 190.28 585.451 190.24 585.531 190.43C585.561 190.49 585.611 190.6 585.791 190.81C586.101 191.17 586.991 192.06 587.441 192.51C589.551 194.64 591.581 196.71 593.691 198.82C593.841 198.97 594.001 199.12 594.131 199.25C594.461 199.56 594.631 199.59 594.651 199.56C594.851 199.31 595.031 199.26 595.241 199.05C595.291 199 595.311 198.98 595.381 198.9C595.411 198.87 595.571 198.9 595.291 198.55C595.061 198.27 593.741 196.96 593.381 196.6C592.741 195.95 592.101 195.3 591.451 194.66V194.67Z" fill="#F7F7F7"/>
<path d="M593.291 192.85C591.841 191.39 590.691 190.21 589.231 188.75C589.061 188.58 588.581 188.11 588.431 187.96C588.111 187.67 588.091 187.73 588.061 187.76C587.861 187.98 587.761 188.05 587.501 188.37C587.421 188.46 587.291 188.42 587.371 188.61C587.401 188.67 587.451 188.78 587.631 188.99C587.941 189.35 588.831 190.24 589.281 190.69C591.391 192.82 593.421 194.89 595.531 197C595.681 197.15 595.841 197.3 595.971 197.43C596.301 197.74 596.471 197.77 596.491 197.74C596.691 197.49 596.871 197.44 597.081 197.23C597.131 197.18 597.151 197.16 597.221 197.08C597.251 197.05 597.411 197.08 597.131 196.73C596.901 196.45 595.581 195.14 595.221 194.78C594.581 194.13 593.941 193.48 593.291 192.84V192.85Z" fill="#F7F7F7"/>
<path d="M606.799 194.79C603.179 197.03 601.229 201.19 598.039 204.01C595.599 206.17 592.149 208.06 592.049 211.32C591.969 213.7 593.809 215.65 595.489 217.33C598.199 220.05 600.819 222.86 603.339 225.75C613.049 236.84 621.419 249.14 632.109 259.27C632.859 258.51 633.609 257.75 634.369 257C636.519 259.47 638.749 261.86 641.129 264.12C641.469 263.78 641.799 263.44 642.139 263.1C643.059 263.98 643.989 264.84 644.959 265.66C646.979 267.35 649.589 268.96 652.109 268.16C653.569 267.7 654.649 266.51 655.669 265.37C659.019 261.62 666.439 256.71 661.179 252.19C659.819 251.02 658.279 249.76 656.719 248.41C657.029 248.1 657.339 247.79 657.639 247.48C657.849 247.26 658.079 247.02 658.109 246.72C658.139 246.4 657.939 246.1 657.749 245.84C655.989 243.5 654.039 241.32 652.009 239.22C652.299 238.92 652.599 238.63 652.889 238.33C653.159 238.06 653.439 237.76 653.479 237.38C653.519 236.97 653.269 236.6 653.019 236.28C646.519 227.6 637.979 220.69 630.489 212.85C624.889 206.99 619.819 200.57 613.579 195.4C612.809 194.77 611.999 194.14 611.039 193.88C609.599 193.49 608.059 194.01 606.799 194.8V194.79Z" fill="#262626"/>
<path d="M637.431 243.67C636.641 243.08 635.681 242.54 634.621 242.7C633.731 242.84 632.971 243.43 632.281 244.02C629.731 246.22 627.481 248.71 625.591 251.41C625.441 251.63 625.281 251.86 625.251 252.12C625.211 252.43 625.361 252.71 625.541 252.95C626.151 253.8 627.111 254.52 628.081 254.99C629.101 255.49 629.421 255.11 630.261 254.21C632.761 251.51 635.251 248.81 637.751 246.11C637.991 245.86 638.231 245.59 638.321 245.27C638.501 244.62 637.961 244.06 637.441 243.66L637.431 243.67Z" fill="#0F0F0F"/>
<path d="M632.72 239.83C632.84 239.7 632.97 239.57 633.03 239.41C633.14 239.11 632.96 238.82 632.78 238.57C632.33 237.94 631.83 237.32 631.14 236.92C630.45 236.52 629.53 236.37 628.72 236.7C628.09 236.96 627.61 237.48 627.16 237.98C624.99 240.37 622.83 242.76 620.66 245.15C620.33 245.51 619.98 245.91 619.95 246.37C619.87 247.31 621.63 248.76 622.48 249.07C623.77 249.53 624.71 247.98 625.53 247.14C627.93 244.71 630.34 242.29 632.72 239.84V239.83Z" fill="#0F0F0F"/>
<path d="M626.59 233.35C626.72 233.23 626.84 233.1 626.9 232.94C627.01 232.64 626.85 232.33 626.68 232.07C626.25 231.4 625.78 230.73 625.11 230.27C624.44 229.81 623.54 229.59 622.75 229.88C622.12 230.1 621.64 230.6 621.19 231.07C619.01 233.35 616.83 235.63 614.65 237.91C614.32 238.26 613.97 238.64 613.92 239.1C613.82 240.06 615.51 241.66 616.33 242.03C617.58 242.59 618.54 241.08 619.37 240.28C621.77 237.97 624.2 235.68 626.59 233.35Z" fill="#0F0F0F"/>
<path d="M620.79 227.62C620.91 227.51 621.03 227.39 621.08 227.25C621.18 226.98 621.03 226.69 620.88 226.45C620.49 225.84 620.06 225.23 619.44 224.82C618.83 224.41 618 224.21 617.27 224.47C616.69 224.68 616.25 225.13 615.83 225.56C613.81 227.65 611.8 229.74 609.78 231.83C609.47 232.15 609.15 232.5 609.1 232.92C609 233.79 610.55 235.24 611.31 235.58C612.46 236.09 613.35 234.7 614.11 233.97C616.33 231.85 618.58 229.75 620.78 227.62H620.79Z" fill="#0F0F0F"/>
<path d="M638.11 238.96C637.75 239.32 637.37 239.71 637.31 240.17C637.18 241.13 638.91 242.69 639.77 243.04C641.07 243.57 642.12 242.02 643.02 241.2C645.62 238.82 648.24 236.45 650.81 234.05C650.95 233.93 651.08 233.8 651.15 233.63C651.28 233.33 651.11 233.02 650.94 232.76C650.51 232.1 650.03 231.44 649.33 231C648.64 230.56 647.7 230.36 646.85 230.67C646.18 230.91 645.66 231.42 645.17 231.91C642.81 234.26 640.45 236.6 638.09 238.95L638.11 238.96Z" fill="#0F0F0F"/>
<path d="M632.56 232.86C632.22 233.21 631.86 233.61 631.81 234.08C631.7 235.06 633.43 236.68 634.28 237.05C635.56 237.62 636.56 236.07 637.41 235.25C639.89 232.88 642.4 230.53 644.86 228.15C644.99 228.03 645.12 227.9 645.18 227.73C645.3 227.42 645.13 227.11 644.96 226.84C644.53 226.15 644.04 225.48 643.35 225.01C642.66 224.55 641.74 224.33 640.92 224.62C640.28 224.85 639.78 225.36 639.31 225.84C637.06 228.18 634.81 230.51 632.56 232.85V232.86Z" fill="#0F0F0F"/>
<path d="M626.25 226.68C625.91 227.04 625.55 227.43 625.51 227.91C625.41 228.9 627.16 230.58 628.01 230.97C629.3 231.56 630.28 229.99 631.12 229.17C633.58 226.78 636.07 224.41 638.51 222C638.64 221.88 638.77 221.74 638.83 221.58C638.94 221.27 638.77 220.94 638.6 220.67C638.16 219.97 637.66 219.27 636.97 218.79C636.28 218.31 635.35 218.08 634.54 218.37C633.9 218.6 633.41 219.11 632.94 219.6C630.71 221.96 628.48 224.32 626.25 226.68Z" fill="#0F0F0F"/>
<path d="M626.631 213.43C624.571 215.75 622.511 218.08 620.451 220.4C620.141 220.75 619.811 221.14 619.781 221.63C619.721 222.63 621.441 224.39 622.271 224.81C623.521 225.45 624.411 223.89 625.191 223.08C627.471 220.73 629.771 218.41 632.031 216.04C632.151 215.92 632.271 215.79 632.321 215.62C632.421 215.31 632.241 214.97 632.071 214.69C631.631 213.96 631.131 213.24 630.461 212.74C629.781 212.23 628.891 211.97 628.121 212.24C627.511 212.45 627.061 212.95 626.631 213.44V213.43Z" fill="#0F0F0F"/>
<g opacity="0.81">
<path d="M582.93 167.89C577.29 173.09 569.82 179.7 564.77 185.45C566.91 189.42 569.9 192.86 572.87 196.27C576.92 200.92 580.98 205.58 585.03 210.23C588.05 213.69 595.97 224.76 601.43 223.67C604.3 223.1 608.249 217.76 610.349 215.81C613.719 212.7 617.09 209.58 620.45 206.47C621.53 205.47 622.699 204.28 622.659 202.83C622.619 201.65 621.779 200.67 620.969 199.8C610.759 188.75 602.06 177.13 590.69 167.22C589.87 166.5 588.99 165.76 587.9 165.57C586.03 165.24 584.309 166.6 582.919 167.89H582.93Z" fill="#B3D6E3"/>
<path d="M591.769 222.579C591.309 222.539 590.869 222.369 590.429 222.189C583.049 219.129 575.259 214.479 568.919 209.619C568.679 209.439 568.419 209.229 568.349 208.929C568.299 208.739 568.349 208.549 568.379 208.359C568.579 207.319 569.379 207.329 569.629 206.309C569.709 205.979 569.869 205.579 570.209 205.559C570.379 205.549 570.529 205.639 570.679 205.729C576.869 209.609 582.329 212.679 588.189 217.039C588.409 217.199 588.649 217.369 588.919 217.379C589.189 217.379 589.439 217.229 589.659 217.069C590.339 216.609 591.009 216.149 591.689 215.699C591.869 215.579 592.069 215.449 592.279 215.479C592.509 215.509 592.679 215.719 592.809 215.909C593.409 216.739 595.469 218.819 595.049 219.719C594.649 220.569 592.649 222.659 591.759 222.589L591.769 222.579Z" fill="#B3D6E3"/>
</g>
<path d="M733.33 167.59C737.44 168.43 741.66 170.63 743.2 174.53C744.21 177.07 743.93 179.92 743.63 182.64C741.58 201.45 739.53 220.27 736.11 238.88C735.51 242.17 734.83 245.53 733.09 248.38C731.1 251.62 727.92 253.91 724.82 256.11C719.73 259.72 714.65 263.33 709.56 266.94C704.96 270.21 694.94 275.3 689.87 277.8C689.42 278.02 689.05 278.19 688.73 278.33C687.62 279.5 685.71 280.49 684.5 281.41C682.88 282.64 681.26 283.88 679.64 285.11C678.42 286.04 677.14 287 675.62 287.26C673.34 287.65 670.95 286.21 670.03 284.09C669.11 281.97 669.6 279.37 671.05 277.58C671.73 276.74 672.67 275.87 672.51 274.79C672.47 274.51 672.35 274.24 672.36 273.96C672.36 273.29 673.01 272.84 673.59 272.51C676.47 270.85 679.53 269.5 682.7 268.49C682.85 268.44 683 268.39 683.16 268.35C683.52 268.08 683.98 267.75 684.58 267.35C689.59 263.94 699.01 255.44 704.02 252.03C708.97 248.66 714.22 244.9 716.16 239.24C717.4 235.64 717.12 231.72 716.89 227.91C716.04 213.96 716.06 199.96 716.94 186.01C717.17 182.42 717.46 178.76 718.77 175.41C720.08 172.05 722.55 168.98 725.94 167.78C728.3 166.95 730.89 167.08 733.34 167.58L733.33 167.59Z" fill="#F0CFC2"/>
<path d="M699.47 273.07C699.66 273.4 699.89 273.76 700.26 273.84C700.6 273.91 700.93 273.72 701.23 273.54C706.98 269.97 712.73 266.4 718.48 262.84C726.04 258.15 734.08 252.91 737.32 244.62C738.91 240.56 739.19 236.13 739.49 231.78C740.35 219.47 741.58 207.18 743.73 195.03C744.51 190.64 745.41 186.24 745.43 181.78C745.45 177.98 744.83 174.2 744.12 170.46C743.9 169.3 743.66 168.1 743.01 167.11C742.16 165.84 740.74 165.09 739.33 164.51C734.53 162.55 729.13 162.07 724.06 163.15C722.06 163.58 720.05 164.27 718.49 165.6C714.4 169.09 714.76 175.36 715.01 180.73C715.3 187.08 714.94 193.46 713.93 199.74C713.24 204.04 712.24 208.34 712.32 212.69C712.39 216.23 713.16 219.71 713.64 223.21C714.25 227.69 714.38 232.24 714.02 236.74C713.91 238.12 713.75 239.52 713.16 240.77C712.38 242.43 710.92 243.65 709.5 244.82C704.51 248.95 698.28 252.86 693.97 257.67C691.36 260.59 692.62 261.16 694.61 264.62C696.23 267.43 697.84 270.24 699.46 273.05L699.47 273.07Z" fill="#9AAAB5"/>
</g>
<defs>
<clipPath id="clip0_309_447">
<rect width="980.97" height="837.88" fill="white"/>
</clipPath>
</defs>
</svg>
