<svg width="24" height="24" viewBox="0 0 24 24" fill="none" xmlns="http://www.w3.org/2000/svg">
<path d="M15.375 14.2H8.625C8.32663 14.2 8.04048 14.3159 7.82951 14.5222C7.61853 14.7285 7.5 15.0083 7.5 15.3C7.5 15.5917 7.61853 15.8715 7.82951 16.0778C8.04048 16.2841 8.32663 16.4 8.625 16.4H15.375C15.6734 16.4 15.9595 16.2841 16.1705 16.0778C16.3815 15.8715 16.5 15.5917 16.5 15.3C16.5 15.0083 16.3815 14.7285 16.1705 14.5222C15.9595 14.3159 15.6734 14.2 15.375 14.2ZM15.375 9.8H10.875C10.5766 9.8 10.2905 9.91589 10.0795 10.1222C9.86853 10.3285 9.75 10.6083 9.75 10.9C9.75 11.1917 9.86853 11.4715 10.0795 11.6778C10.2905 11.8841 10.5766 12 10.875 12H15.375C15.6734 12 15.9595 11.8841 16.1705 11.6778C16.3815 11.4715 16.5 11.1917 16.5 10.9C16.5 10.6083 16.3815 10.3285 16.1705 10.1222C15.9595 9.91589 15.6734 9.8 15.375 9.8ZM17.625 3.2H16.2975C16.0654 2.5581 15.6359 2.0021 15.0679 1.60823C14.5 1.21437 13.8213 1.00191 13.125 1H10.875C10.1787 1.00191 9.50002 1.21437 8.93205 1.60823C8.36408 2.0021 7.9346 2.5581 7.7025 3.2H6.375C5.47989 3.2 4.62145 3.54768 3.98851 4.16655C3.35558 4.78542 3 5.62479 3 6.5V19.7C3 20.5752 3.35558 21.4146 3.98851 22.0335C4.62145 22.6523 5.47989 23 6.375 23H17.625C18.5201 23 19.3786 22.6523 20.0115 22.0335C20.6444 21.4146 21 20.5752 21 19.7V6.5C21 5.62479 20.6444 4.78542 20.0115 4.16655C19.3786 3.54768 18.5201 3.2 17.625 3.2V3.2ZM9.75 4.3C9.75 4.00826 9.86853 3.72847 10.0795 3.52218C10.2905 3.31589 10.5766 3.2 10.875 3.2H13.125C13.4234 3.2 13.7095 3.31589 13.9205 3.52218C14.1315 3.72847 14.25 4.00826 14.25 4.3V5.4H9.75V4.3ZM18.75 19.7C18.75 19.9917 18.6315 20.2715 18.4205 20.4778C18.2095 20.6841 17.9234 20.8 17.625 20.8H6.375C6.07663 20.8 5.79048 20.6841 5.57951 20.4778C5.36853 20.2715 5.25 19.9917 5.25 19.7V6.5C5.25 6.20826 5.36853 5.92847 5.57951 5.72218C5.79048 5.51589 6.07663 5.4 6.375 5.4H7.5V6.5C7.5 6.79174 7.61853 7.07153 7.82951 7.27782C8.04048 7.48411 8.32663 7.6 8.625 7.6H15.375C15.6734 7.6 15.9595 7.48411 16.1705 7.27782C16.3815 7.07153 16.5 6.79174 16.5 6.5V5.4H17.625C17.9234 5.4 18.2095 5.51589 18.4205 5.72218C18.6315 5.92847 18.75 6.20826 18.75 6.5V19.7Z" fill="#4632DA"/>
</svg>
