<svg width="28" height="28" viewBox="0 0 28 28" fill="none" xmlns="http://www.w3.org/2000/svg">
<g clip-path="url(#clip0_484_82452)">
<path d="M24.5 3.49083V24.5095C24.4976 24.8159 24.3747 25.109 24.1579 25.3256C23.9411 25.5421 23.6479 25.6647 23.3415 25.6668H4.6585C4.35145 25.6668 4.05696 25.5449 3.83973 25.3279C3.6225 25.1109 3.50031 24.8165 3.5 24.5095V3.49083C3.50244 3.18444 3.62532 2.89131 3.84209 2.67476C4.05885 2.45821 4.35211 2.33563 4.6585 2.3335H23.3415C23.9808 2.3335 24.5 2.8515 24.5 3.49083V3.49083ZM22.1667 4.66683H5.83333V23.3335H22.1667V4.66683ZM13.1752 15.308L18.1253 10.359L19.775 12.0087L13.1752 18.6085L8.63683 14.0702L10.2877 12.4205L13.1752 15.308V15.308Z" fill="white"/>
</g>
<defs>
<clipPath id="clip0_484_82452">
<rect width="28" height="28" fill="white"/>
</clipPath>
</defs>
</svg>
